<svg width="138" height="154" viewBox="0 0 138 154" fill="none" xmlns="http://www.w3.org/2000/svg">
<path fill-rule="evenodd" clip-rule="evenodd" d="M36.9451 40.9631C36.9451 33.7331 39.8171 26.799 44.9294 21.6867C50.0418 16.5744 56.9754 13.7023 64.2053 13.7023C71.4353 13.7023 78.3694 16.5744 83.4817 21.6867C88.594 26.799 91.4661 33.7331 91.4661 40.9631V54.6223H105.096V40.9709C105.096 30.1318 100.79 19.7369 93.1257 12.0724C85.4613 4.40802 75.0659 0.102234 64.2268 0.102234C58.8598 0.102103 53.5452 1.15877 48.5867 3.21259C43.6282 5.2664 39.1229 8.2769 35.3279 12.072C31.5328 15.867 28.5223 20.3722 26.4685 25.3307C24.4147 30.2893 23.358 35.6039 23.3582 40.9709V54.6223H36.9451V40.9631Z" fill="#253368"/>
<path fill-rule="evenodd" clip-rule="evenodd" d="M123.006 137.221H5.44678C4.09334 137.217 2.79637 136.678 1.83887 135.721C0.881367 134.765 0.341212 133.468 0.335938 132.115V57.1452C0.339895 55.7909 0.87976 54.493 1.8374 53.5353C2.79504 52.5777 4.09247 52.0378 5.44678 52.0339H123.006C124.36 52.0381 125.658 52.5782 126.615 53.5358C127.573 54.4934 128.112 55.791 128.117 57.1452V132.115C128.111 133.468 127.571 134.765 126.614 135.721C125.656 136.678 124.359 137.217 123.006 137.221Z" fill="url(#paint0_linear_28_228)"/>
<path fill-rule="evenodd" clip-rule="evenodd" d="M101.941 124.444H26.5138C25.2194 124.444 23.9784 123.93 23.0631 123.015C22.1478 122.099 21.6332 120.858 21.6329 119.564V69.6942C21.6335 68.4 22.1478 67.159 23.0631 66.244C23.9784 65.3291 25.2196 64.8148 26.5138 64.8148H101.941C102.582 64.8147 103.216 64.9408 103.808 65.1859C104.4 65.431 104.939 65.7905 105.392 66.2435C105.845 66.6966 106.204 67.2345 106.449 67.8265C106.695 68.4186 106.821 69.0534 106.821 69.6942V119.566C106.82 120.86 106.306 122.101 105.391 123.016C104.476 123.93 103.235 124.444 101.941 124.444Z" fill="#E4EBF7"/>
<path fill-rule="evenodd" clip-rule="evenodd" d="M57.619 101.236C57.6192 99.9292 58.0067 98.6524 58.7328 97.566C59.4589 96.4796 60.4908 95.6328 61.6981 95.1329C62.9054 94.633 64.2339 94.5024 65.5155 94.7574C66.7971 95.0125 67.9744 95.6415 68.8983 96.5655C69.8222 97.4896 70.4511 98.6667 70.7059 99.9483C70.9608 101.23 70.8301 102.558 70.33 103.766C69.8299 104.973 68.9829 106.005 67.8964 106.731C66.8099 107.456 65.5327 107.844 64.226 107.844C63.3582 107.844 62.4988 107.673 61.6971 107.341C60.8955 107.009 60.1671 106.522 59.5536 105.909C58.9401 105.295 58.4534 104.566 58.1215 103.765C57.7895 102.963 57.6189 102.104 57.619 101.236Z" fill="#253368"/>
<path fill-rule="evenodd" clip-rule="evenodd" d="M64.2271 81.4121C65.1026 81.4137 65.9419 81.7627 66.5605 82.3823C67.1792 83.0019 67.5266 83.8412 67.5269 84.7168V101.078H60.918V84.7168C60.9181 84.2825 61.004 83.8528 61.1704 83.4517C61.3368 83.0505 61.5804 82.6858 61.8877 82.3789C62.195 82.072 62.5596 81.8285 62.9609 81.6626C63.3623 81.4967 63.7927 81.4117 64.2271 81.4121Z" fill="#253368"/>
<path fill-rule="evenodd" clip-rule="evenodd" d="M111.672 102.438C106.573 102.438 101.589 103.95 97.3491 106.782C93.1093 109.615 89.8044 113.641 87.853 118.352C85.9015 123.063 85.3906 128.247 86.3852 133.248C87.3799 138.249 89.8354 142.843 93.4409 146.448C97.0464 150.054 101.64 152.51 106.641 153.505C111.642 154.499 116.826 153.989 121.537 152.038C126.247 150.086 130.274 146.782 133.107 142.542C135.94 138.303 137.452 133.318 137.452 128.219C137.451 121.382 134.735 114.825 129.901 109.99C125.066 105.155 118.51 102.439 111.672 102.438Z" fill="#00CB73"/>
<path fill-rule="evenodd" clip-rule="evenodd" d="M107.517 136.975L105.889 135.346L121.66 119.517C121.919 119.258 122.271 119.112 122.637 119.112C123.004 119.112 123.354 119.258 123.614 119.517L124.264 120.168C124.392 120.296 124.494 120.448 124.564 120.616C124.633 120.783 124.669 120.963 124.669 121.144C124.669 121.326 124.633 121.505 124.564 121.673C124.494 121.841 124.392 121.993 124.264 122.121L109.464 136.975C109.206 137.232 108.855 137.377 108.491 137.377C108.126 137.377 107.776 137.232 107.517 136.975Z" fill="white"/>
<path fill-rule="evenodd" clip-rule="evenodd" d="M111.097 135.349L109.468 136.977C109.34 137.105 109.188 137.207 109.021 137.276C108.853 137.346 108.674 137.382 108.492 137.382C108.311 137.382 108.132 137.346 107.965 137.276C107.798 137.207 107.645 137.105 107.517 136.977L101.036 130.495C100.907 130.367 100.805 130.215 100.735 130.047C100.666 129.88 100.629 129.7 100.629 129.518C100.629 129.337 100.666 129.157 100.735 128.99C100.805 128.822 100.907 128.67 101.036 128.542L101.685 127.891C101.944 127.632 102.296 127.486 102.662 127.486C103.029 127.486 103.38 127.632 103.64 127.891L111.097 135.349Z" fill="white"/>
<defs>
<linearGradient id="paint0_linear_28_228" x1="64.2263" y1="52.0339" x2="64.2263" y2="137.221" gradientUnits="userSpaceOnUse">
<stop stop-color="#0060F9"/>
<stop offset="1" stop-color="#00307D"/>
</linearGradient>
</defs>
</svg>
