<svg width="145" height="145" viewBox="0 0 145 145" fill="none" xmlns="http://www.w3.org/2000/svg">
<path d="M108.911 7.035C110.69 7.035 112.133 5.59246 112.133 3.813C112.133 2.03354 110.69 0.591003 108.911 0.591003C107.132 0.591003 105.689 2.03354 105.689 3.813C105.689 5.59246 107.132 7.035 108.911 7.035Z" fill="#734D3B"/>
<path d="M108.911 32.519C110.69 32.519 112.133 31.0765 112.133 29.297C112.133 27.5176 110.69 26.075 108.911 26.075C107.132 26.075 105.689 27.5176 105.689 29.297C105.689 31.0765 107.132 32.519 108.911 32.519Z" fill="#734D3B"/>
<path d="M141.132 38.963C142.911 38.963 144.354 37.5205 144.354 35.741C144.354 33.9616 142.911 32.519 141.132 32.519C139.353 32.519 137.91 33.9616 137.91 35.741C137.91 37.5205 139.353 38.963 141.132 38.963Z" fill="#734D3B"/>
<path d="M135.835 49.847C134.489 47.628 129.789 47.685 129.789 47.685C125.51 54.043 115.223 47.285 115.223 47.285C107.583 50.703 102.923 39.811 102.923 39.811C92.6431 38.274 94.2311 27.477 94.2311 27.477C89.1161 26.45 90.552 17.203 90.552 17.203C90.552 17.203 93.3901 14.875 91.9931 13.173C91.1051 12.09 91.0501 8.98401 91.1281 6.86301C75.8941 2.22617 59.5395 2.87958 44.724 8.71699C29.9086 14.5544 17.5037 25.2324 9.52696 39.0144C1.55018 52.7965 -1.5293 68.8718 0.789318 84.6261C3.10794 100.38 10.6883 114.887 22.2975 125.786C33.9068 136.686 48.862 143.337 64.7311 144.659C80.6002 145.98 96.4496 141.894 109.702 133.065C122.954 124.235 132.829 111.182 137.721 96.0286C142.614 80.8748 142.235 64.5116 136.648 49.6C136.285 50.012 136.004 50.125 135.835 49.847Z" fill="#3F3D56"/>
<path d="M135.835 49.847C134.489 47.628 129.789 47.685 129.789 47.685C125.51 54.043 115.223 47.285 115.223 47.285C107.583 50.703 102.923 39.811 102.923 39.811C92.6431 38.274 94.2311 27.477 94.2311 27.477C89.1161 26.45 90.552 17.203 90.552 17.203C90.552 17.203 93.3901 14.875 91.9931 13.173C91.1051 12.09 91.0501 8.98401 91.1281 6.86301C75.8941 2.22617 59.5395 2.87958 44.724 8.71699C29.9086 14.5544 17.5037 25.2324 9.52696 39.0144C1.55018 52.7965 -1.5293 68.8718 0.789318 84.6261C3.10794 100.38 10.6883 114.887 22.2975 125.786C33.9068 136.686 48.862 143.337 64.7311 144.659C80.6002 145.98 96.4496 141.894 109.702 133.065C122.954 124.235 132.829 111.182 137.721 96.0286C142.614 80.8748 142.235 64.5116 136.648 49.6C136.285 50.012 136.004 50.125 135.835 49.847Z" fill="#734D3B"/>
<path d="M131.651 49.569C130.371 47.458 125.901 47.513 125.901 47.513C121.831 53.56 112.048 47.137 112.048 47.137C104.782 50.388 100.348 40.028 100.348 40.028C90.5711 38.566 92.0821 28.298 92.0821 28.298C87.2181 27.321 88.5821 18.527 88.5821 18.527C88.5821 18.527 91.2821 16.313 89.9531 14.694C89.1091 13.664 89.0531 10.71 89.1301 8.69402C74.6417 4.28414 59.0876 4.90557 44.9973 10.4573C30.907 16.009 19.1093 26.1644 11.523 39.2719C3.93666 52.3794 1.00794 67.6679 3.21311 82.6511C5.41828 97.6343 12.6276 111.431 23.6687 121.797C34.7098 132.163 48.933 138.488 64.0254 139.745C79.1178 141.002 94.1914 137.116 106.795 128.719C119.398 120.321 128.79 107.907 133.443 93.4952C138.096 79.0831 137.736 63.5207 132.422 49.339C132.079 49.726 131.812 49.833 131.651 49.569Z" fill="#8B5D48"/>
<path opacity="0.1" d="M29.071 84.28L30.5521 86.748L33.5141 91.685L34.5011 95.141L32.5261 98.103L34.994 104.027L35.981 107.483L34.006 109.458L37.955 112.42" fill="black"/>
<path opacity="0.1" d="M101.639 62.559V66.508L99.1711 72.928L97.6901 76.384L100.158 80.827L101.145 83.789L105.094 85.27L106.575 87.738V93.662" fill="black"/>
<path opacity="0.1" d="M126.816 66.508L122.867 68.976C122.867 68.976 120.892 69.963 120.892 70.457V74.406" fill="black"/>
<path opacity="0.1" d="M109.044 52.686L110.031 57.623L109.044 61.079" fill="black"/>
<path opacity="0.1" d="M112.994 97.111L110.032 101.554L106.576 104.516V106.491L108.548 108.963V111.925L107.067 114.887" fill="black"/>
<path opacity="0.1" d="M84.855 13.193H79.9181L75.9691 16.649L69.5511 20.105L66.5891 22.573V23.56L60.1711 27.016L58.196 30.472" fill="black"/>
<path opacity="0.1" d="M31.539 21.585L27.096 30.471L25.615 33.927L22.16 38.374C22.16 38.374 19.692 42.817 19.198 43.311C18.704 43.805 15.249 44.792 15.249 44.792L20.186 49.729" fill="black"/>
<path opacity="0.1" d="M11.795 55.648L10.808 62.066L11.795 66.015V72.926L8.83301 85.761L11.795 89.217L15.251 93.66" fill="black"/>
<path opacity="0.1" d="M19.1981 58.61L22.16 60.091L24.1351 66.509L28.0841 65.522L30.0591 68.978" fill="black"/>
<path opacity="0.1" d="M73.501 122.786L81.401 121.799L84.857 118.343H89.789" fill="black"/>
<path opacity="0.1" d="M25.615 112.419L28.579 115.871L33.516 117.352L36.972 118.339L37.959 123.769" fill="black"/>
<path opacity="0.1" d="M83.864 95.634L87.32 93.166L88.801 89.217L91.763 88.723L93.244 83.786" fill="black"/>
<path d="M25.238 76.757C27.3544 76.757 29.07 75.0414 29.07 72.925C29.07 70.8087 27.3544 69.093 25.238 69.093C23.1217 69.093 21.406 70.8087 21.406 72.925C21.406 75.0414 23.1217 76.757 25.238 76.757Z" fill="#FFF7CC"/>
<path d="M47.65 30.472C51.1151 30.472 53.924 27.663 53.924 24.198C53.924 20.733 51.1151 17.924 47.65 17.924C44.185 17.924 41.376 20.733 41.376 24.198C41.376 27.663 44.185 30.472 47.65 30.472Z" fill="#FFF7CC"/>
<path d="M73.5011 73.304C76.8772 73.304 79.6141 70.5671 79.6141 67.191C79.6141 63.8149 76.8772 61.078 73.5011 61.078C70.1249 61.078 67.3881 63.8149 67.3881 67.191C67.3881 70.5671 70.1249 73.304 73.5011 73.304Z" fill="#FFF7CC"/>
<path d="M61.051 127.692C64.9877 127.692 68.179 124.501 68.179 120.564C68.179 116.627 64.9877 113.436 61.051 113.436C57.1143 113.436 53.923 116.627 53.923 120.564C53.923 124.501 57.1143 127.692 61.051 127.692Z" fill="#FFF7CC"/>
<path d="M116.94 92.67C119.12 92.67 120.887 90.9029 120.887 88.723C120.887 86.5431 119.12 84.776 116.94 84.776C114.76 84.776 112.993 86.5431 112.993 88.723C112.993 90.9029 114.76 92.67 116.94 92.67Z" fill="#FFF7CC"/>
</svg>
