<svg xmlns="http://www.w3.org/2000/svg" width="36.343" height="48.457" viewBox="0 0 36.343 48.457">
  <g id="Groupe_2886" data-name="Groupe 2886" transform="translate(3583 3436)">
    <path id="hand-point-down-solid" d="M8.691,44.217V30.093a12.86,12.86,0,0,1-2.358,1.339A4.546,4.546,0,0,1,0,27.257a4.034,4.034,0,0,1,2.753-3.786c2.677-1.147,6.088-7.443,7.318-10.177a4.543,4.543,0,0,1,4.15-2.694H30.455A2.269,2.269,0,0,1,32.7,12.518c.686,4.433,3.642,5.845,3.626,11.71,0,.258.018,1.254.018,1.514,0,4.794-2.094,7.72-6.745,6.871a4.335,4.335,0,0,1-5.9,1.557,4.655,4.655,0,0,1-6.714.6v9.45a4.268,4.268,0,0,1-4.148,4.24,4.336,4.336,0,0,1-4.148-4.24ZM10.6,6.814V2.271A2.271,2.271,0,0,1,12.871,0H31.043a2.271,2.271,0,0,1,2.271,2.271V6.814a2.271,2.271,0,0,1-2.271,2.271H12.871A2.271,2.271,0,0,1,10.6,6.814ZM30.664,4.543a1.893,1.893,0,1,0-1.893,1.893A1.893,1.893,0,0,0,30.664,4.543Z" transform="translate(-3583 -3436)" fill="#0060f9"/>
  </g>
</svg>
