<svg id="Groupe_2837" data-name="Groupe 2837" xmlns="http://www.w3.org/2000/svg" width="69.962" height="54.061" viewBox="0 0 69.962 54.061">
  <path id="Tracé_20794" data-name="Tracé 20794" d="M64.6,8a6.371,6.371,0,0,0-6.138,7.982L47.175,27.3a6.477,6.477,0,0,0-3.307,0l-8.109-8.109a6.357,6.357,0,1,0-12.275,0L8.982,33.663A6.355,6.355,0,1,0,13.5,38.179l14.469-14.5a6.477,6.477,0,0,0,3.307,0l8.109,8.109a6.357,6.357,0,1,0,12.275,0L62.98,20.5A6.355,6.355,0,1,0,64.6,8Z" transform="translate(-1 7.9)" fill="#0060f9"/>
  <path id="Tracé_20795" data-name="Tracé 20795" d="M21.54,22.08,24.529,15.5,31.08,12.54,24.529,9.583,21.54,3,18.615,9.583,12,12.54,18.615,15.5Z" transform="translate(22.981 -3)" fill="#0060f9"/>
  <path id="Tracé_20796" data-name="Tracé 20796" d="M8.95,21.9l1.59-6.36,6.36-1.59-6.36-1.59L8.95,6,7.36,12.36,1,13.95l6.36,1.59Z" transform="translate(-1 3.54)" fill="#0060f9"/>
</svg>
