<svg xmlns="http://www.w3.org/2000/svg" width="45.571" height="52.081" viewBox="0 0 45.571 52.081">
  <path id="podcast-solid" d="M22.785,0a22.783,22.783,0,0,0-9.012,43.709,54.409,54.409,0,0,1-.712-5.915,17.9,17.9,0,1,1,19.45.005,54.646,54.646,0,0,1-.716,5.917A22.787,22.787,0,0,0,22.785,0Zm0,31.737c-3.345,0-6.51.877-6.51,4.45a73.4,73.4,0,0,0,2.1,13.508c.527,1.938,2.49,2.385,4.413,2.385s3.891-.445,4.413-2.378a74.072,74.072,0,0,0,2.1-13.51C29.3,32.612,26.132,31.737,22.785,31.737Zm0-3.255a5.7,5.7,0,1,0-5.7-5.7A5.693,5.693,0,0,0,22.785,28.482Zm14.648-5.7a14.648,14.648,0,1,0-23.9,11.271,6.546,6.546,0,0,1,3.26-3.564c0-.006.032-.006.052-.006a9.765,9.765,0,1,1,11.884,0,.29.29,0,0,1,.048.008,6.54,6.54,0,0,1,3.26,3.564A14.551,14.551,0,0,0,37.433,22.785Z" fill="#0060f9"/>
</svg>
