<svg width="129" height="159" viewBox="0 0 129 159" fill="none" xmlns="http://www.w3.org/2000/svg">
<path fill-rule="evenodd" clip-rule="evenodd" d="M99.7734 0.787109H29.5439C28.4407 0.791143 27.3763 1.19394 26.5469 1.92139C25.7174 2.64883 25.1792 3.65183 25.0312 4.74512C22.9443 19.5031 9.4864 27.09 3.6084 29.645C2.79548 29.9972 2.10282 30.5793 1.61621 31.3196C1.1296 32.0599 0.870005 32.9261 0.869141 33.812V93.866C0.869141 133.166 64.6582 158.209 64.6582 158.209C64.6582 158.209 128.449 133.167 128.449 93.866V33.8171C128.447 32.9318 128.186 32.0661 127.7 31.3262C127.214 30.5862 126.523 30.004 125.711 29.6501C119.834 27.0921 106.372 19.504 104.284 4.75C104.128 3.67668 103.581 2.6986 102.749 2.00317C101.917 1.30775 100.857 0.943807 99.7734 0.980957V0.787109Z" fill="white"/>
<path fill-rule="evenodd" clip-rule="evenodd" d="M93.873 12.4871C94.7453 15.1779 95.9082 17.7656 97.3418 20.2041C99.5521 23.9334 102.304 27.3136 105.508 30.2341C108.842 33.2709 112.537 35.8874 116.508 38.0251V93.5471C116.508 108.578 102.116 121.888 90.041 130.409C82.0287 135.975 73.5343 140.812 64.6592 144.862C55.9182 140.876 47.5476 136.124 39.6445 130.662C31.3845 124.875 24.8927 118.906 20.3438 112.919C18.0356 109.954 16.147 106.685 14.7295 103.205C13.4848 100.138 12.8364 96.8612 12.8193 93.551V38.0271C16.7916 35.8909 20.486 33.2743 23.8193 30.2361C27.0236 27.3159 29.776 23.9356 31.9863 20.2061C33.4191 17.7671 34.582 15.1795 35.4551 12.489L93.873 12.4871Z" fill="url(#paint0_linear_28_93)"/>
<path d="M89.37 45.723C89.454 45.7894 89.5238 45.8719 89.5754 45.9656C89.6269 46.0594 89.6591 46.1626 89.67 46.269C89.6811 46.3753 89.6708 46.4827 89.6397 46.5848C89.6086 46.687 89.5574 46.782 89.489 46.864L85.989 51.04C85.9227 51.124 85.8402 51.1938 85.7464 51.2454C85.6526 51.2969 85.5495 51.3291 85.443 51.34C85.3368 51.3511 85.2294 51.3408 85.1272 51.3097C85.025 51.2786 84.9301 51.2274 84.848 51.159C84.764 51.0927 84.6942 51.0102 84.6427 50.9164C84.5912 50.8227 84.559 50.7195 84.548 50.613C84.5369 50.5068 84.5472 50.3994 84.5783 50.2972C84.6094 50.195 84.6607 50.1001 84.729 50.018L88.229 45.842C88.3652 45.6762 88.5614 45.5708 88.7749 45.5489C88.9884 45.527 89.2019 45.5903 89.369 45.725L89.37 45.723Z" fill="white"/>
<path d="M95.5881 47.6141C95.705 47.7872 95.7495 47.9992 95.7122 48.2048C95.6748 48.4104 95.5585 48.5931 95.3881 48.7141L87.7201 53.8661C87.547 53.983 87.3349 54.0275 87.1294 53.9901C86.9238 53.9527 86.741 53.8364 86.6201 53.6661C86.5032 53.4929 86.4587 53.2809 86.4961 53.0753C86.5334 52.8698 86.6497 52.687 86.8201 52.5661L94.4521 47.4121C94.5387 47.3456 94.6382 47.2979 94.7443 47.2721C94.8504 47.2463 94.9607 47.2429 95.0681 47.2621C95.1743 47.2818 95.2754 47.3232 95.3648 47.3838C95.4543 47.4444 95.5303 47.5228 95.5881 47.6141Z" fill="white"/>
<path d="M94.6 55.5591C94.628 55.6596 94.6349 55.7648 94.6201 55.8681C94.6053 55.9714 94.5691 56.0705 94.514 56.1591C94.4589 56.2476 94.386 56.3237 94.2999 56.3825C94.2139 56.4414 94.1165 56.4818 94.014 56.5011L88.7 57.7621C88.5992 57.7903 88.4936 57.7973 88.3899 57.7824C88.2863 57.7676 88.1869 57.7313 88.098 57.6759C88.0092 57.6205 87.9329 57.5471 87.874 57.4605C87.8151 57.374 87.7749 57.276 87.756 57.1731C87.7277 57.0722 87.7208 56.9666 87.7356 56.863C87.7505 56.7593 87.7867 56.6599 87.8422 56.5711C87.8976 56.4822 87.971 56.4059 88.0575 56.347C88.1441 56.2882 88.242 56.248 88.345 56.2291L93.656 55.0101C93.7537 54.9741 93.8581 54.9601 93.9618 54.9691C94.0655 54.9781 94.166 55.0098 94.256 55.0621C94.3466 55.1148 94.4244 55.187 94.4837 55.2735C94.5431 55.3599 94.5824 55.4585 94.599 55.5621L94.6 55.5591Z" fill="white"/>
<path d="M85.749 62.6C85.71 62.483 85.71 62.325 85.67 62.207C85.6309 62.022 85.5493 61.8486 85.4317 61.7005C85.3141 61.5523 85.1638 61.4335 84.9924 61.3534C84.8211 61.2734 84.6335 61.2342 84.4445 61.2389C84.2554 61.2437 84.07 61.2924 83.903 61.381L76.549 65.629C76.368 65.7407 76.2187 65.897 76.1156 66.083C76.0124 66.269 75.9588 66.4784 75.96 66.691V66.927C76.0255 69.6757 74.9975 72.338 73.1018 74.3294C71.2061 76.3207 68.5975 77.4783 65.849 77.548C63.1026 77.4721 60.4979 76.3125 58.6037 74.3225C56.7094 72.3325 55.6795 69.6738 55.739 66.927C55.6734 64.1786 56.7013 61.5164 58.5968 59.5251C60.4923 57.5337 63.1006 56.376 65.849 56.306C67.7397 56.3009 69.5889 56.8601 71.16 57.912C71.346 58.0336 71.5619 58.1016 71.784 58.1085C72.0061 58.1153 72.2258 58.0609 72.419 57.951L79.932 53.663C80.0816 53.5735 80.2102 53.4529 80.309 53.3092C80.4079 53.1656 80.4746 53.0023 80.5047 52.8306C80.5347 52.6588 80.5275 52.4826 80.4834 52.3139C80.4392 52.1453 80.3593 51.9881 80.249 51.853C79.3436 50.8879 78.3379 50.022 77.249 49.27C76.1707 48.4937 75.0128 47.8343 73.795 47.303C71.3062 46.1944 68.612 45.6215 65.8875 45.6215C63.1629 45.6215 60.4688 46.1944 57.98 47.303C56.7718 47.8578 55.6139 48.5159 54.519 49.27C53.4435 50.0383 52.4424 50.9058 51.529 51.861C50.6144 52.8377 49.7847 53.8905 49.049 55.008C48.324 56.1697 47.7052 57.3943 47.2 58.667C46.688 59.9676 46.2931 61.3113 46.02 62.682C45.7014 64.0629 45.5434 65.4759 45.549 66.893V67.523C45.5809 68.9394 45.752 70.3492 46.06 71.732C46.3413 73.0707 46.7623 74.3762 47.316 75.627C47.7484 76.648 48.261 77.6331 48.849 78.573L64.822 101.581C64.9299 101.762 65.0828 101.911 65.2658 102.015C65.4488 102.119 65.6556 102.174 65.866 102.174C66.0764 102.174 66.2832 102.119 66.4662 102.015C66.6492 101.911 66.8021 101.762 66.91 101.581L82.527 79.202C83.2413 78.0716 83.8726 76.8908 84.416 75.669C84.9532 74.4117 85.3746 73.108 85.675 71.774C85.9829 70.3912 86.1541 68.9814 86.186 67.565V66.935C86.1598 65.4805 86.0136 64.0306 85.749 62.6Z" fill="white"/>
<defs>
<linearGradient id="paint0_linear_28_93" x1="64.6636" y1="12.4871" x2="64.6636" y2="144.862" gradientUnits="userSpaceOnUse">
<stop stop-color="#0060F9"/>
<stop offset="1" stop-color="#00307D"/>
</linearGradient>
</defs>
</svg>
