<svg xmlns="http://www.w3.org/2000/svg" width="262.546" height="300.604" viewBox="0 0 262.546 300.604">
  <g id="Groupe_2852" data-name="Groupe 2852" transform="matrix(0.883, 0.469, -0.469, 0.883, 92.343, -54.352)">
    <path id="Tracé_7823" data-name="Tracé 7823" d="M7.1,27.047c-4.129,0-4.319-6.069-4.319-6.069a53.5,53.5,0,0,1-1.214-7.455C1.3,10.725-1.266,3.53.8,4.477c2,.918,2.5,5.04,4.011,5.6,3.07,1.132,3.367-7.542,4.277-8.843C10.855-1.3,16.619-1.016,15.3,12.8Q12.2,27.047,7.1,27.047Z" transform="translate(189.775 23.517)" fill="#997c79" fill-rule="evenodd"/>
    <path id="Tracé_7824" data-name="Tracé 7824" d="M2.579.029C2-.1,1.64.236,1.491.811a2.6,2.6,0,0,0-.078.584v.092L1.227,2.71.8,5.665.747,6a6.773,6.773,0,0,1-.71,2.483.233.233,0,0,0,.393.25,7.464,7.464,0,0,0,.8-2.821l.546-3.76.1-.659V1.487a2.157,2.157,0,0,1,.063-.56c.094-.361.25-.509.534-.445a.233.233,0,0,0,.1-.454Z" transform="translate(198.539 24.277)" fill="#7c5b4d"/>
    <path id="Tracé_7825" data-name="Tracé 7825" d="M3.726.338A.91.91,0,0,0,2.145.644a7.361,7.361,0,0,0-.474,2.965v.185a11.155,11.155,0,0,1-.314,2.973c-.1.368-.218.744-.394,1.227l-.249.659c-.2.524-.565,1.456-.7,1.8a.233.233,0,0,0,.435.166L1.271,8.5,1.4,8.151c.18-.494.306-.883.406-1.266a11.153,11.153,0,0,0,.329-2.864V3.794A7.365,7.365,0,0,1,2.561.852c.228-.456.47-.507.857-.166A.233.233,0,0,0,3.726.338Z" transform="translate(200.131 24.905)" fill="#7c5b4d"/>
    <path id="Tracé_7826" data-name="Tracé 7826" d="M5.684,2.616A14.547,14.547,0,0,1,4.723,7.3a14.341,14.341,0,0,1-.665,1.5l-.114.214c-.036.067-.071.128-.1.185l-.04.069L3.708,9.3c-.132.055-.278.122-.436.2a7.8,7.8,0,0,0-1.319.829,4.387,4.387,0,0,0-1.7,5.112A.233.233,0,1,0,.694,15.3a3.933,3.933,0,0,1,1.547-4.6,7.34,7.34,0,0,1,1.24-.778c.111-.055.215-.1.313-.147L3.964,9.7l.072-.028a.232.232,0,0,0,.118-.094L4.2,9.5l.045-.076.109-.194q.057-.1.119-.224a14.82,14.82,0,0,0,.687-1.547A14.988,14.988,0,0,0,6.149,2.6l.006-.31V2.281a3.975,3.975,0,0,1,.1-.973c.112-.47.308-.77.582-.852A.233.233,0,0,0,6.7.01,1.456,1.456,0,0,0,5.8,1.2a4.377,4.377,0,0,0-.113.969V2.31Z" transform="translate(197.453 28.863)" fill="#7c5b4d"/>
    <path id="Tracé_7827" data-name="Tracé 7827" d="M.388.06A.233.233,0,1,0,.077.406L.141.465.173.5C.251.571.339.659.433.759a9.719,9.719,0,0,1,.794.952A4.668,4.668,0,0,1,2.34,4.983a2.646,2.646,0,0,1-.164.623.233.233,0,0,0,.432.173A3.094,3.094,0,0,0,2.8,5.046a5.093,5.093,0,0,0-1.2-3.61,10.16,10.16,0,0,0-.832-1L.627.291.5.161C.445.112.409.078.388.06Z" transform="translate(194.7 33.732)" fill="#7c5b4d"/>
    <path id="Tracé_7828" data-name="Tracé 7828" d="M17.7,18.227,18.831,7.073,3.588,0,.209,15.494a8.8,8.8,0,0,0,3.953,9.452,11.41,11.41,0,0,0,1.051.556A8.9,8.9,0,0,0,17.7,18.227Z" transform="translate(118.863 24.894)" fill="#997c79" fill-rule="evenodd"/>
    <path id="Tracé_7829" data-name="Tracé 7829" d="M29.931,20.449C26.38,32.171,17.266,36.341,9.244,35.562c-9.563-.928-10.479-9.406-8.2-21.157C3.358,2.472,9.121-.861,18.088.179,27.436,1.263,33.528,8.575,29.931,20.449Z" transform="translate(114.558 0.646)" fill="#997c79" fill-rule="evenodd"/>
    <path id="Tracé_7830" data-name="Tracé 7830" d="M18.692,21.888c.416-.895.913-2.424,2.505-2.828,2.193-.558,3.674,2.046,3.015,4.514-.8,2.991-3.755,4.442-5.277,4.233-.282,3-.282,4.619-.282,4.619a25.135,25.135,0,0,0,6.441-7.69c4.071-7.6,3.891-19.1-4.756-22.985C6.768-3.886,0,5.893,0,5.893L17.5,8.178,16.21,13.951s3.088.623,1.455,7.44Z" transform="translate(118.978 0)" fill="#604346" fill-rule="evenodd"/>
    <path id="Tracé_7831" data-name="Tracé 7831" d="M.392,0A.349.349,0,0,0,.26.686L.306.7l5.53.68,1.612.766a.348.348,0,0,0,.442-.124l.023-.041a.349.349,0,0,0-.124-.442l-.041-.023L6.084.721A.341.341,0,0,0,6.014.7L5.977.69Z" transform="translate(125.233 13.908)" fill="#604346"/>
    <path id="Tracé_7832" data-name="Tracé 7832" d="M16.876,6.784C15.284,3.663,15.827,1.159,7.541.117,3.509-.389,1.9.73,0,3.741a9.62,9.62,0,0,0,9.414,9.178C20.82,13.674,22.958,2.463,22.958,2.463a4.136,4.136,0,0,0-2.284.95A15.557,15.557,0,0,1,16.876,6.784Z" transform="translate(114.789 23.667)" fill="#7c5b4d" fill-rule="evenodd"/>
    <path id="Tracé_7833" data-name="Tracé 7833" d="M0,0A53.876,53.876,0,0,0,7.424.824,4.713,4.713,0,0,1,2.766,2.66,3.114,3.114,0,0,1,0,0Z" transform="translate(119.186 25.722)" fill="#fff" fill-rule="evenodd"/>
    <path id="Tracé_7834" data-name="Tracé 7834" d="M.42.007l.2.038.451.08L1.2.147C1.834.252,2.572.359,3.4.457c1.36.162,2.828.289,4.388.367a.349.349,0,0,1,.278.535A4.193,4.193,0,0,1,7.056,2.4a5.232,5.232,0,0,1-3.989.956A3.431,3.431,0,0,1,.594,1.9,3.374,3.374,0,0,1,0,.384.349.349,0,0,1,.42.007ZM.814.79.776.672a2.945,2.945,0,0,0,.393.831A2.737,2.737,0,0,0,3.162,2.663a4.538,4.538,0,0,0,3.474-.823l.148-.116c.1-.079.185-.159.27-.242l-.336-.02c-1.194-.078-2.329-.184-3.4-.311l-.547-.068Q1.974.979,1.3.871Z" transform="translate(118.838 25.373)" fill="#604346"/>
    <path id="Tracé_7835" data-name="Tracé 7835" d="M2.51,0A.349.349,0,0,0,2.2.345l0,.047.241,1.936L.066,9.147A1.175,1.175,0,0,0,.92,10.681l.074.014,4.362.681a.349.349,0,0,0,.154-.679l-.046-.01L1.1,10.005A.477.477,0,0,1,.71,9.43l.015-.053L3.134,2.482a.35.35,0,0,0,.019-.1l0-.054L2.9.306A.349.349,0,0,0,2.557,0Z" transform="translate(118.964 13.035)" fill="#604346"/>
    <path id="Tracé_7836" data-name="Tracé 7836" d="M.4,0A.349.349,0,0,0,.247.683l.046.01,2.086.336A.349.349,0,0,0,2.537.351L2.491.34Z" transform="translate(120.93 29.566)" fill="#604346"/>
    <path id="Tracé_7837" data-name="Tracé 7837" d="M.433.01A.349.349,0,0,0,.22.673L.265.688,4.771,1.8a.349.349,0,0,0,.213-.663l-.045-.014Z" transform="translate(116.403 11.885)" fill="#604346"/>
    <path id="Tracé_7838" data-name="Tracé 7838" d="M11.058.221a.349.349,0,0,0-.452-.2,13.708,13.708,0,0,1-8.756.5C1.469.425,1.132.313.842.2L.653.126C.583.1.531.075.5.059a.349.349,0,1,0-.3.63L.324.745c.07.03.16.067.268.108.311.119.67.238,1.072.348a14.4,14.4,0,0,0,9.2-.528A.349.349,0,0,0,11.058.221Z" transform="translate(120.013 35.331)" fill="#604346"/>
    <path id="Tracé_7839" data-name="Tracé 7839" d="M2.694.06A1.89,1.89,0,0,0,1.318.226,3,3,0,0,0,.005,2.409a.262.262,0,0,0,.181.3c.657.2.94.508.93.871a1.28,1.28,0,0,1-.649.951.262.262,0,1,0,.277.444A1.786,1.786,0,0,0,1.64,3.6a1.37,1.37,0,0,0-1-1.279L.569,2.29l.012-.047A2.385,2.385,0,0,1,1.5.724L1.569.685a1.382,1.382,0,0,1,1-.117c.048.012.085.023.108.031L2.7.607A.262.262,0,0,0,2.9.122L2.834.1C2.8.087,2.749.073,2.694.06Z" transform="translate(138.46 20.431)" fill="#604346"/>
    <path id="Tracé_7840" data-name="Tracé 7840" d="M1.906.012C.988-.116.169.81,0,2.017a.349.349,0,1,0,.691.1C.815,1.242,1.348.639,1.811.7s.814.788.694,1.658a.349.349,0,0,0,.691.1C3.363,1.25,2.825.138,1.906.012Z" transform="translate(116.366 15.548)" fill="#604346"/>
    <path id="Tracé_7841" data-name="Tracé 7841" d="M1.85.011C.958-.111.164.786,0,1.954a.349.349,0,0,0,.691.1C.809,1.218,1.318.643,1.755.7s.772.751.658,1.583A.349.349,0,1,0,3.1,2.38C3.265,1.213,2.744.134,1.85.011Z" transform="translate(126.521 17.231)" fill="#604346"/>
    <path id="Tracé_7842" data-name="Tracé 7842" d="M49.367,45.809a9.391,9.391,0,0,0-.414-13.052L18.341,3.053a10.812,10.812,0,1,0-14.525,16l32.521,27.6A9.391,9.391,0,0,0,49.367,45.809Z" transform="translate(138.049 52.111)" fill="#adc6ff" fill-rule="evenodd"/>
    <path id="Tracé_7843" data-name="Tracé 7843" d="M.68,30.24A9.391,9.391,0,0,1,5.6,18.144L44.627.923a10.812,10.812,0,1,1,8.062,20.051L12.605,35.562A9.391,9.391,0,0,1,.68,30.24Z" transform="translate(50.727 46.054)" fill="#adc6ff" fill-rule="evenodd"/>
    <path id="Tracé_7844" data-name="Tracé 7844" d="M.328,10.29S1.694,1.487,6.4.2c4.263-1.167,6.767,3.216,6.767,3.216a29.48,29.48,0,0,1,1.848,7.875c.232,2.792,1.611,8.043-.052,8.526-2.169.632-2.539-4.932-4.116-5.393-3.2-.933-3.706,7.871-4.7,9.261C4.21,26.4-1.406,20.839.328,10.29Z" transform="translate(35.729 115.311)" fill="#997c79" fill-rule="evenodd"/>
    <path id="Tracé_7845" data-name="Tracé 7845" d="M1.982.032a.32.32,0,0,0-.427.15L1.486.334,1.4.529q-.044.1-.092.223c-.181.45-.363.956-.532,1.507a15.062,15.062,0,0,0-.669,6.41.32.32,0,1,0,.635-.087A14.455,14.455,0,0,1,1.39,2.447c.163-.533.339-1.022.514-1.455L1.991.779c.028-.066.055-.128.08-.185L2.133.459A.32.32,0,0,0,1.982.032Z" transform="translate(39.711 130.037)" fill="#7c5b4d"/>
    <path id="Tracé_7846" data-name="Tracé 7846" d="M1.632.018a.32.32,0,0,0-.408.2A19.129,19.129,0,0,0,.069,8.289l.018.16C.1,8.6.12,8.7.132,8.769a.32.32,0,0,0,.63-.12L.744,8.54C.733,8.462.72,8.357.706,8.224A18.5,18.5,0,0,1,1.83.425.321.321,0,0,0,1.632.018Z" transform="translate(37.573 128.659)" fill="#7c5b4d"/>
    <path id="Tracé_7847" data-name="Tracé 7847" d="M1.511.027A.32.32,0,0,0,1.09.193l-.033.08C1.026.351.986.46.939.6L.91.687c-.13.4-.26.875-.381,1.427A25.123,25.123,0,0,0,0,6.537a.32.32,0,0,0,.64.024,24.5,24.5,0,0,1,.514-4.309c.1-.465.21-.871.318-1.22L1.519.887c.073-.223.129-.369.158-.438A.32.32,0,0,0,1.511.027Z" transform="translate(35.966 126.836)" fill="#7c5b4d"/>
    <path id="Tracé_7848" data-name="Tracé 7848" d="M13.417,55.674,0,52.362,13.619,6.008C14.9,1.643,20.239-.943,25.358.321S33.317,6.189,31.6,10.447Z" transform="translate(36.908 64.792)" fill="#adc6ff" fill-rule="evenodd"/>
    <path id="Tracé_7849" data-name="Tracé 7849" d="M.4.009A.32.32,0,0,0,.2.617L.243.631,13.66,3.943a.32.32,0,0,0,.2-.607l-.045-.015Z" transform="translate(36.587 116.834)" fill="#597ef7"/>
    <path id="Tracé_7850" data-name="Tracé 7850" d="M.4.01A.32.32,0,0,0,.2.617L.244.631,11.936,3.517a.32.32,0,0,0,.2-.607L12.089,2.9Z" transform="translate(39.154 111.023)" fill="#597ef7"/>
    <path id="Tracé_7851" data-name="Tracé 7851" d="M2.13,1.174A1.129,1.129,0,0,1,.781,1.8.9.9,0,0,1,.044.659,1.13,1.13,0,0,1,1.392.037.9.9,0,0,1,2.13,1.174Z" transform="translate(40.211 114.33)" fill="#fff" fill-rule="evenodd"/>
    <path id="Tracé_7852" data-name="Tracé 7852" d="M22.455,17.413c-2.337.151-9.613-3.1-17.968,10.745-3.939,6.529-7.463-3.2-.583-14.674,3.922-6.541,6.733-3.56,8.2-7.5C12.954,3.7,15.756-.427,17.452.036c2.962.807,3.792,1.039,7.169,2.213C44.637,9.21,42.286,17.685,22.455,17.413Z" transform="translate(0 166.434)" fill="#253368" fill-rule="evenodd"/>
    <path id="Tracé_7853" data-name="Tracé 7853" d="M8.5,83.762a11.245,11.245,0,0,0,13.53-7.719L39.29,17.609A13.719,13.719,0,1,0,12.7,10.916L.24,70.557A11.245,11.245,0,0,0,8.5,83.762Z" transform="translate(81.077 119.299)" fill="#4e5c93" fill-rule="evenodd"/>
    <path id="Tracé_7854" data-name="Tracé 7854" d="M4.132,0,73.386,15.388c5.774,1.283,9.4,7.459,7.969,13.594-1.411,6.068-7.205,9.7-12.83,8.043L.2,16.891A25.192,25.192,0,0,1,4.132,0Z" transform="translate(21.858 166.575)" fill="#4e5c93" fill-rule="evenodd"/>
    <path id="Tracé_7855" data-name="Tracé 7855" d="M47.569,65.782s13.722-36.438,11.7-55.967c-5.582-3.937-9.02-5.587-18.915-8.179-1.829-.479-4.624,3.075-6.832,2.73C30.261,3.856,27.778-.193,24.631.007A143.335,143.335,0,0,0,5.085,2.388L0,28.883C1.267,43.592,5.688,60.755,5.688,60.755S-.066,68.7,10.722,72.382C20.436,75.7,38.115,76.8,44.928,73.8,47.9,72.491,48.543,69.545,47.569,65.782Z" transform="translate(95.124 43.391)" fill="#adc6ff" fill-rule="evenodd"/>
    <path id="Tracé_7856" data-name="Tracé 7856" d="M6.556,0,9.838,3.328l-3.986,8.62L0,5.229Z" transform="translate(130.273 43.055)" fill="#adc6ff" fill-rule="evenodd"/>
    <path id="Tracé_7857" data-name="Tracé 7857" d="M14.712,7.036,3.191,0,0,3.011,6.416,13.664Z" transform="translate(115.367 40.853)" fill="#adc6ff" fill-rule="evenodd"/>
    <path id="Tracé_7858" data-name="Tracé 7858" d="M9.494,5.138,5.008,0,0,4.553l1.271,6.034,6.417.435Z" transform="translate(124.874 47.888)" fill="#253368" fill-rule="evenodd"/>
    <path id="Tracé_7859" data-name="Tracé 7859" d="M14.967.78s1.062,23.269.952,32.676c-.013,1.155-10.7,14.079-10.7,14.079S-.421,31.075.025,29.816C2.03,24.169,4.864,10.982,8.276,0Z" transform="translate(117.596 57.933)" fill="#253368" fill-rule="evenodd"/>
    <path id="Tracé_7860" data-name="Tracé 7860" d="M.649.172A.349.349,0,0,0,.027.484L.049.527l6.415,10.85a.349.349,0,0,0,.492.114l.039-.03L15.082,4.3l6.007,7.865a.349.349,0,0,0,.578-.035l.021-.045L25.416,3a.349.349,0,0,0-.624-.308l-.021.042-3.5,8.518L15.408,3.574a.35.35,0,0,0-.469-.08l-.04.03-8.05,7.133Z" transform="translate(115.016 43.711)" fill="#597ef7"/>
    <path id="Tracé_7861" data-name="Tracé 7861" d="M14.27,0A.349.349,0,0,0,13.9.325a95.387,95.387,0,0,1-1.259,9.847,166.2,166.2,0,0,1-4.13,17.316C7.369,31.4,6.153,35.168,4.932,38.665l-.244.7c-.373,1.057-.724,2.026-1.047,2.9l-.4,1.063-.288.749a.349.349,0,0,0,.007.273l.056.133c.013.031.026.066.041.1.075.2.151.423.222.67a6.993,6.993,0,0,1,.241,3.118A4.313,4.313,0,0,1,.242,51.805a.349.349,0,1,0,.215.664,5,5,0,0,0,3.751-3.98,7.664,7.664,0,0,0-.258-3.432c-.061-.213-.126-.411-.191-.592l-.073-.2-.03-.077.239-.623q.089-.234.189-.5L4.3,42.5c.325-.875.677-1.847,1.051-2.908,1.307-3.7,2.613-7.721,3.832-11.91a167.039,167.039,0,0,0,4.147-17.39A96.008,96.008,0,0,0,14.593.374.349.349,0,0,0,14.27,0Z" transform="translate(138.892 65.229)" fill="#597ef7"/>
    <path id="Tracé_7862" data-name="Tracé 7862" d="M32.261,4.47,19.349,0,.579,45.873c-1.846,4.511.876,9.839,6.011,11.692s10.583-.545,11.936-5.255Z" transform="translate(171.443 42.791)" fill="#adc6ff" fill-rule="evenodd"/>
    <path id="Tracé_7863" data-name="Tracé 7863" d="M.439.018a.331.331,0,0,0-.262.6l.045.02L11.532,4.577a.33.33,0,0,0,.262-.6l-.045-.02Z" transform="translate(188.178 49.113)" fill="#597ef7"/>
    <path id="Tracé_7864" data-name="Tracé 7864" d="M.436.017a.331.331,0,0,0-.251.61L.226.644,12.5,4.75a.331.331,0,0,0,.251-.61l-.041-.017Z" transform="translate(190.632 42.825)" fill="#597ef7"/>
    <path id="Tracé_7865" data-name="Tracé 7865" d="M4.938.027A.35.35,0,0,0,4.5.172L4.481.214.027,10.854a.349.349,0,0,0,.623.312l.021-.042L5.125.484A.349.349,0,0,0,4.938.027Z" transform="translate(172.693 74.813)" fill="#597ef7"/>
    <path id="Tracé_7866" data-name="Tracé 7866" d="M31.9.233a.349.349,0,0,0-.4-.226L31.457.02.234,10.993a.349.349,0,0,0,.186.671l.046-.013L31.688.678A.349.349,0,0,0,31.9.233Z" transform="translate(67.804 68.441)" fill="#597ef7"/>
    <path id="Tracé_7867" data-name="Tracé 7867" d="M.63.141A.349.349,0,1,0,.069.556,13.766,13.766,0,0,1,2.352,5.5a21.4,21.4,0,0,1-.084,9.682c-.13.586-.269,1.117-.408,1.582L1.791,17l-.113.341a.349.349,0,0,0,.657.236l.055-.161.067-.207q.035-.112.073-.239c.143-.481.286-1.028.42-1.631a22.085,22.085,0,0,0,.08-10A14.472,14.472,0,0,0,.63.141Z" transform="translate(100.445 46.023)" fill="#597ef7"/>
    <path id="Tracé_7868" data-name="Tracé 7868" d="M.389,0A.349.349,0,0,0,.262.687L.309.7,7,1.476A.349.349,0,0,0,7.127.792L7.081.783Z" transform="translate(125.523 57.584)" fill="#597ef7"/>
    <path id="Tracé_7869" data-name="Tracé 7869" d="M7.115,0s33.8,3.425,38.455,3.853c2.424.223,3.635,7.354,4.746,17.579C48.263,35.175,23.111,35.011,23.111,35.011,19.6,35.461,0,22.678,0,22.678S-.325,12.457,7.115,0Z" transform="translate(93.107 117.576)" fill="#4e5c93" fill-rule="evenodd"/>
    <path id="Tracé_7870" data-name="Tracé 7870" d="M39.887,4.626l-.43,4.7s-5.659,1.455-18.806.645C8,9.188,0,4.917,0,4.917L.765,0S16.171,7.189,39.887,4.626Z" transform="translate(100.026 112.641)" fill-rule="evenodd"/>
    <path id="Tracé_7871" data-name="Tracé 7871" d="M12.218,5.485l.2-3.421a1.615,1.615,0,0,0-1.6-1.751,69.338,69.338,0,0,1-8.947-.3A1.608,1.608,0,0,0,.1,1.611L0,5.111A1.636,1.636,0,0,0,1.3,6.784a30.027,30.027,0,0,0,9.528.25A1.642,1.642,0,0,0,12.218,5.485Z" transform="translate(119.703 116.429)" fill="#e4ebf7" fill-rule="evenodd"/>
    <path id="Tracé_7872" data-name="Tracé 7872" d="M9.426,3.9,9.574,1.48A1.2,1.2,0,0,0,8.334.238a58.2,58.2,0,0,1-6.9-.229A1.2,1.2,0,0,0,.071,1.137L0,3.613A1.19,1.19,0,0,0,1.005,4.8a25.254,25.254,0,0,0,7.35.194A1.2,1.2,0,0,0,9.426,3.9Z" transform="translate(121.091 117.505)" fill-rule="evenodd"/>
    <path id="Tracé_7873" data-name="Tracé 7873" d="M15.412,16.532s5.445,11.623,17.093,13.939c7.626,1.517-.022,8.617-13.408,5.995-7.631-1.495-5.972-5.4-10.214-5.4-2.458,0-8.572-1.011-8.813-2.87-.421-3.251,1.164-8.725,1.354-12.528C2.57-7.268,7.823-3.329,15.412,16.532Z" transform="translate(153.396 264.517)" fill="#253368" fill-rule="evenodd"/>
    <path id="Tracé_7874" data-name="Tracé 7874" d="M44.153,79.223A11.245,11.245,0,0,0,49.8,64.705L26.389,8.452A13.719,13.719,0,1,0,1.526,20l27.893,54.17A11.244,11.244,0,0,0,44.153,79.223Z" transform="translate(117.671 132.329)" fill="#4e5c93" fill-rule="evenodd"/>
    <path id="Tracé_7875" data-name="Tracé 7875" d="M.03,11.938a11.134,11.134,0,1,1,22.238-.9L22.9,87a23.776,23.776,0,0,1-17.4.563Z" transform="translate(147.009 193.002)" fill="#4e5c93" fill-rule="evenodd"/>
    <path id="Tracé_7876" data-name="Tracé 7876" d="M14.458,0,.294,2.271a.349.349,0,0,0,.063.694l.047,0L14.568.694A.349.349,0,0,0,14.5,0Z" transform="translate(115.475 149.97)"/>
    <path id="Tracé_7877" data-name="Tracé 7877" d="M.44.012A.349.349,0,0,0,.213.671L.258.686,7.712,2.7a.349.349,0,0,0,.227-.658l-.045-.015Z" transform="translate(121.368 152.668)"/>
  </g>
</svg>
