<svg xmlns="http://www.w3.org/2000/svg" width="72.067" height="232.428" viewBox="0 0 72.067 232.428">
  <g id="Etudiante" transform="translate(0 0)">
    <path id="Tracé_14831" data-name="Tracé 14831" d="M2875.313,1628.727c-.528-29.9-11.835-92.937-13.463-109.173s4.156-21.734,9.695-19.055,7.2,40.137,7.2,40.137a149.072,149.072,0,0,0,1.827,15.679c5.23,30.181,1.56,72.843,1.56,72.843a3.849,3.849,0,0,1-4.08,2.408C2874.981,1631.2,2875.313,1628.727,2875.313,1628.727Z" transform="translate(-2821.476 -1419.434)" fill="#ffc999" fill-rule="evenodd"/>
    <path id="Tracé_14832" data-name="Tracé 14832" d="M2903.581,1822.32c.072.305,1.111-10.641,1.063-13.87a40.514,40.514,0,0,1-8.323.162s.572,12.483.406,13.708C2899.828,1824.2,2903.581,1822.32,2903.581,1822.32Z" transform="translate(-2843.132 -1611.753)" fill="#597ef7" fill-rule="evenodd"/>
    <path id="Tracé_14833" data-name="Tracé 14833" d="M2893.168,1857.009c-.535,4.329-2.864,6.616-5.264,6.873-2.977.313-6.213-.528-6.737-3.192-.595-3.044.969-4.6,2.72-8.953a63.447,63.447,0,0,0,3.237-11.172s2.231-1.307,1.632,2.446c-.486,3.041-1.662,11.586-3.727,12.186,2.012-.162,6.146,1.413,6.146,1.413s-1.469-2.283-1.36-3.044,1.326-8.565,1.386-10.878c.064-2.291,2.05-2.012,3.007-1.745a.627.627,0,0,1,.452.678C2894.569,1842.381,2893.424,1854.959,2893.168,1857.009Z" transform="translate(-2833.607 -1631.63)" fill="#4e5c93" fill-rule="evenodd"/>
    <path id="Tracé_14834" data-name="Tracé 14834" d="M2896.063,1844.135s2.479-5.2,0-5.712c-1.959-.407-3.836-.49-4.081,0-.09.181-.083,1.876-.734,5.385a35.639,35.639,0,0,1-3.425,9.872c-1.146,1.549.079,1.632,2.852,2.366s3.753.735,4.488-.735S2895.9,1847.315,2896.063,1844.135Z" transform="translate(-2837.569 -1630.222)" fill="#4e5c93" fill-rule="evenodd"/>
    <path id="Tracé_14835" data-name="Tracé 14835" d="M2894.046,1857.665a.291.291,0,0,1,.373-.166,9.225,9.225,0,0,1,1.195.58c.4.226.829.494,1.262.791.524.354,1.032.731,1.515,1.108l.2.155c.064.052.121.1.177.147l.253.207a.29.29,0,0,1-.226.509,6.485,6.485,0,0,0-1.959.094,15.05,15.05,0,0,0-2.159.58c-.275.094-.547.192-.8.29l-.177.072.109.034a9.123,9.123,0,0,1,2.548,1.386l.151.113a14.759,14.759,0,0,1,1.372,1.191l.166.166c.026.026.053.053.075.079l.143.151c.068.072.113.124.139.151a.29.29,0,1,1-.437.381l-.091-.1-.034-.038c-.109-.113-.229-.241-.369-.377a13.63,13.63,0,0,0-1.319-1.146,7.334,7.334,0,0,0-3.44-1.616.29.29,0,0,1-.09-.55l.143-.064.283-.124c.034-.011.068-.026.105-.042.414-.173.866-.347,1.337-.509a15.582,15.582,0,0,1,2.246-.6,8.728,8.728,0,0,1,1.029-.128l.207-.011-.219-.169c-.29-.219-.588-.441-.889-.652l-.305-.211c-.422-.29-.833-.546-1.221-.765a8.813,8.813,0,0,0-1.119-.543A.289.289,0,0,1,2894.046,1857.665Z" transform="translate(-2840.718 -1642.309)" fill="#ccd7ee"/>
    <path id="Tracé_14836" data-name="Tracé 14836" d="M2895.08,1859.317a6.181,6.181,0,0,1,2.012.038.285.285,0,0,1,.219.347.288.288,0,0,1-.343.218,5.538,5.538,0,0,0-1.82-.026,13.658,13.658,0,0,0-1.865.373c-.219.057-.426.117-.625.177l-.057.015.095.045a11.468,11.468,0,0,1,1.952,1.217l.185.143a15.1,15.1,0,0,1,1.612,1.485c.136.139.256.275.362.4l.147.169c.038.049.068.087.087.113a.287.287,0,0,1-.2.463l-.049,0-.061,0c-.358,0-.833,0-1.379.026a23.532,23.532,0,0,0-2.37.211,7.617,7.617,0,0,0-2.973.912.291.291,0,1,1-.324-.482,8.156,8.156,0,0,1,3.214-1c.772-.113,1.594-.181,2.431-.219l.324-.011c.105,0,.208-.007.305-.007l.219,0-.064-.072-.094-.1a14.224,14.224,0,0,0-1.548-1.424,10.371,10.371,0,0,0-2.792-1.62.292.292,0,0,1,0-.546l.249-.087c.053-.019.1-.034.162-.052.32-.106.671-.211,1.04-.309A14.735,14.735,0,0,1,2895.08,1859.317Z" transform="translate(-2838.917 -1643.415)" fill="#ccd7ee"/>
    <path id="Tracé_14837" data-name="Tracé 14837" d="M2892.715,1882.5s-5.874-4.895-11.259-1.3c-1.345,3-.569,4.785.083,5.708a3.152,3.152,0,0,0,1.217,1.078c1.311.475,4.748,1.424,7.186-.177A6,6,0,0,0,2892.715,1882.5Z" transform="translate(-2833.407 -1656.267)" fill="#ccd7ee" fill-rule="evenodd"/>
    <path id="Tracé_14838" data-name="Tracé 14838" d="M2882.834,1883.329a.154.154,0,0,1,.271.147,2.994,2.994,0,0,0,1.036,3.606,13.242,13.242,0,0,0,5.565.844,3.074,3.074,0,0,0,2.408-1.666,7.273,7.273,0,0,0,.588-1.172c.052-.139.1-.271.139-.388l.042-.143a.155.155,0,0,1,.188-.105.153.153,0,0,1,.109.188l-.034.117-.015.041c-.037.121-.086.256-.143.4a7.558,7.558,0,0,1-.614,1.221,3.37,3.37,0,0,1-2.653,1.812c-2.2.1-4.966-.373-5.75-.9A3.293,3.293,0,0,1,2882.834,1883.329Z" transform="translate(-2834.539 -1658.369)" fill="#a3b5d6"/>
    <path id="Tracé_14839" data-name="Tracé 14839" d="M2904.533,1812.879a.291.291,0,0,1,.121.569l-.1.019c-.083.015-.177.034-.286.053l-.321.057c-.222.034-.459.072-.716.105a23.143,23.143,0,0,1-5.791.091c-.189-.023-.377-.049-.562-.079a.291.291,0,0,1-.241-.332.294.294,0,0,1,.332-.241c.181.03.358.056.542.079a22.685,22.685,0,0,0,5.645-.094c.313-.041.6-.083.859-.128l.151-.026C2904.344,1812.917,2904.469,1812.894,2904.533,1812.879Z" transform="translate(-2843.325 -1614.51)" fill="#ccd7ee"/>
    <path id="Tracé_14840" data-name="Tracé 14840" d="M2895.254,1850.84a.292.292,0,0,1,.286.2l0,.022.026.008.038.011.2.1.256.132c.09.045.185.094.279.143.554.294,1.107.6,1.627.923a14.865,14.865,0,0,1,1.315.9,3.9,3.9,0,0,1,1.01,1.059.825.825,0,0,1-.181,1.149c-.629.482-1.466.14-2.457-.765a13.1,13.1,0,0,1-1.153-1.213c-.392-.464-.776-.957-1.134-1.454l-.09-.128-.185-.26-.233.2c-.369.309-.765.618-1.168.908-.342.245-.674.467-.991.656l-.184.106c-1.394.787-2.415.882-2.754-.139-.384-1.157.765-1.843,2.8-2.246.587-.113,1.217-.2,1.843-.252l.316-.026.29-.023C2895.13,1850.847,2895.209,1850.843,2895.254,1850.84Zm.746,1.1.057.075c.286.384.588.769.893,1.126a12.8,12.8,0,0,0,1.1,1.161c.8.727,1.4.976,1.715.735.132-.1.143-.2.03-.407a3.452,3.452,0,0,0-.863-.886,13.946,13.946,0,0,0-1.262-.863c-.4-.249-.833-.494-1.266-.727l-.324-.177Zm-1.571-.456-.268.026c-.505.053-1.006.125-1.478.215l-.237.049c-1.549.339-2.332.84-2.129,1.443.177.528.893.43,2.094-.282.3-.177.618-.388.946-.625.313-.226.622-.463.919-.7Z" transform="translate(-2839.002 -1638.171)" fill="#ccd7ee"/>
    <path id="Tracé_14841" data-name="Tracé 14841" d="M2910.015,1843.914a.288.288,0,0,1,.264.275l0,.038-.215,2.393a.291.291,0,0,1-.58-.011v-.042l.219-2.393a.291.291,0,0,1,.275-.264Z" transform="translate(-2851.332 -1633.852)" fill="#ccd7ee"/>
    <path id="Tracé_14842" data-name="Tracé 14842" d="M2899.911,1841.89a.3.3,0,0,1,.264.279v.038l-.219,2.393a.289.289,0,0,1-.576-.011v-.041l.218-2.393a.288.288,0,0,1,.275-.264Z" transform="translate(-2845.038 -1632.593)" fill="#ccd7ee"/>
    <path id="Tracé_14843" data-name="Tracé 14843" d="M2798.623,1625.257c.524-29.9,11.835-92.937,13.459-109.173s-4.156-21.734-9.695-19.055-7.2,40.14-7.2,40.14a148.146,148.146,0,0,1-1.827,15.678c-5.226,30.181-1.56,72.839-1.56,72.839a3.85,3.85,0,0,0,4.081,2.411C2798.951,1627.726,2798.623,1625.257,2798.623,1625.257Z" transform="translate(-2777.217 -1417.272)" fill="#ffc999" fill-rule="evenodd"/>
    <path id="Tracé_14844" data-name="Tracé 14844" d="M2820.87,1477.508l.369-2.238s9.97.011,21.865.083a18.878,18.878,0,0,0,.407,2.528S2834.917,1480.764,2820.87,1477.508Z" transform="translate(-2796.11 -1404.115)" fill="#4e5c93" fill-rule="evenodd"/>
    <path id="Tracé_14845" data-name="Tracé 14845" d="M2843.789,1434.593l-.836,2.14s-.23,10.569-.23,11.406a79.572,79.572,0,0,1-22.992-.147l.056-3.911-.927-12Z" transform="translate(-2794.858 -1377.199)" fill="#597ef7" fill-rule="evenodd"/>
    <path id="Tracé_14846" data-name="Tracé 14846" d="M2844.482,1438.124a.188.188,0,0,1,.241-.105.184.184,0,0,1,.113.211l-.008.03-.825,2.11-.335,11.266c0,.147,0,.249,0,.305a.185.185,0,0,1-.151.181,61.834,61.834,0,0,1-19.533.305c-.885-.121-1.688-.249-2.4-.377l-.234-.045c-.226-.042-.426-.079-.6-.117l-.35-.075a.194.194,0,0,1-.143-.158v-.034l.218-3.949a.188.188,0,0,1,.2-.177.185.185,0,0,1,.174.162l0,.034-.211,3.794.087.019c.132.026.279.057.441.087l.256.049c.762.143,1.639.286,2.615.422a61.985,61.985,0,0,0,18.99-.226l.275-.053.03-1.243.151-5.215.155-5,.015-.06Z" transform="translate(-2795.724 -1380.892)" fill="#4e5c93"/>
    <path id="Tracé_14847" data-name="Tracé 14847" d="M2846.214,1304.391a6.429,6.429,0,0,1,7.114,5.128c5.452,1.982,3.964,7.932,3.964,7.932s2.739,4.672-2.7,7.065c-.437,4.785-5.874,3.915-5.874,3.915a3.95,3.95,0,0,1-5.441,2.178c-4.461,3.467-9.774-.769-9.774-.769s-4.955,1.982-6.937,0c-4.461,1.485-9.417-3.964-9.417-3.964s-2.784.7-4.766-3.753c-5.177.8-10.837-5.8-6.093-11.967-3.112-4.925.433-7.834.433-7.834s-.976-11.315,6.854-12.838c4.024-6.093,12.729-1.195,12.729-1.195s5.765-1.2,7.833,3.806c6.443.991,6.138,4.533,6.635,7.506C2846.542,1299.93,2846.214,1304.391,2846.214,1304.391Z" transform="translate(-2785.915 -1286.428)" fill="#253368" fill-rule="evenodd"/>
    <path id="Tracé_14848" data-name="Tracé 14848" d="M2842.436,1310.428c-4.518.795-5.89-2.623-5.89-2.623s-1.865-4.816-2.34-1.861c-.256,1.571-2.683-.512-3.8,1.164-.75,1.127,1.13,2.577-1.311,5.58-1.417,1.741,4.164,3.131.72,6.338,0,0,2.449,3.919-1.756,5.2l-.927,4.559,9.688-.015-.313-5.253C2843.031,1323.514,2843.351,1314.543,2842.436,1310.428Z" transform="translate(-2800.011 -1297.993)" fill="#ffc999" fill-rule="evenodd"/>
    <path id="Tracé_14849" data-name="Tracé 14849" d="M2845.51,1331.97a.291.291,0,0,1,.41,0l.057.053c.03.026.064.053.105.087a3.7,3.7,0,0,0,.5.328,3.662,3.662,0,0,0,2.178.464.289.289,0,0,1,.053.576,4.274,4.274,0,0,1-2.513-.531,3.817,3.817,0,0,1-.787-.565A.291.291,0,0,1,2845.51,1331.97Z" transform="translate(-2811.413 -1314.757)" fill="#f5222d"/>
    <path id="Tracé_14850" data-name="Tracé 14850" d="M2853.417,1320.089a.234.234,0,0,1,.215.211v.038a2.5,2.5,0,0,0,.124.761,6.543,6.543,0,0,0,.946,1.88.233.233,0,0,1-.064.328l-.3.184c-.388.241-.731.441-1.029.607l-.109.06c-.083.045-.158.087-.226.121l-.234.121a.019.019,0,0,0-.015.008.237.237,0,0,1-.309-.113.233.233,0,0,1,.113-.309l.11-.053.188-.1c.049-.026.1-.053.151-.083.279-.15.6-.335.961-.554l.249-.154-.057-.087a6.777,6.777,0,0,1-.78-1.609l-.038-.121a3.3,3.3,0,0,1-.143-.848v-.075A.235.235,0,0,1,2853.417,1320.089Z" transform="translate(-2815.756 -1307.406)" fill="#dd936f"/>
    <path id="Tracé_14851" data-name="Tracé 14851" d="M2812.464,1404.012s12.382,3.282,18.03-.656c6.138-4.277-1.379-20.558-3.346-24.8a12.1,12.1,0,0,0-8.716-6.564c-3.3-.547-5.813-.742-5.813-.742l-.724-2.822a.932.932,0,0,0-.9-.7h-9.872a.926.926,0,0,0-.919.8l-.381,2.672s-8.312-.313-12.246,3.331c-3.768,3.485-2.679,11.315.482,18.561s5.822,13,11.1,13.527c9.766.98,25.034-7.525,25.034-7.525a9.408,9.408,0,0,1,5.027-1.025c-.562-3.35-2.419-5.765-7.815-4.371l-19.258,4" transform="translate(-2773.872 -1337.095)" fill="#597ef7" fill-rule="evenodd"/>
    <path id="Tracé_14852" data-name="Tracé 14852" d="M2865.045,1418.762a6.643,6.643,0,0,1-1,5.558l.207,3.21-13.674,7.4s14.884,3.429,20.829-.038c4.462-2.6,3.181-10-.245-17.461C2871.165,1417.428,2868.474,1416.61,2865.045,1418.762Z" transform="translate(-2814.626 -1367.972)" fill="#ffc999" fill-rule="evenodd"/>
    <path id="Tracé_14853" data-name="Tracé 14853" d="M2802.377,1423.44l3.813,8.278,15.253-4.141c4.56-1.209,9.4.516,10.607,4.141-2.231.279-6.466,1.258-6.466,1.258s-14.65,9.137-22.047,8.791c-5.3-.252-7.366-6.428-10.528-13.674C2793.01,1428.094,2794.936,1424,2802.377,1423.44Z" transform="translate(-2778.748 -1371.814)" fill="#ffc999" fill-rule="evenodd"/>
    <path id="Tracé_14854" data-name="Tracé 14854" d="M2883.17,1399.99a.185.185,0,0,1,.185.185l0,.26,0,.256c0,.132-.011.275-.015.422-.026.584-.064,1.172-.125,1.73l-.03.245.087.087a8.78,8.78,0,0,1,1.409,1.971l.087.177a8.643,8.643,0,0,1,.237,6.673c-.121.35-.249.667-.376.946l-.064.136-.109.214a.189.189,0,0,1-.252.072.187.187,0,0,1-.071-.256l.053-.1c.03-.06.064-.132.105-.223a8.676,8.676,0,0,0,.362-.912,7.913,7.913,0,0,0-1.794-8.591.194.194,0,0,1-.052-.154c.083-.644.131-1.338.162-2.031l.015-.418.008-.444v-.06A.186.186,0,0,1,2883.17,1399.99Z" transform="translate(-2834.703 -1357.2)" fill="#4e5c93"/>
    <path id="Tracé_14855" data-name="Tracé 14855" d="M2832.444,1376.81a.189.189,0,0,1,.188.188.186.186,0,0,1-.155.181l-.034,0h-8.888a.186.186,0,0,1-.034-.37l.034,0Z" transform="translate(-2797.669 -1342.755)" fill="#4e5c93"/>
    <path id="Tracé_14856" data-name="Tracé 14856" d="M2836.065,1376.611a.217.217,0,0,1,.264-.154.213.213,0,0,1,.162.23l0,.034-2.932,11.394a.219.219,0,0,1-.343.12l-.026-.026-10.652-11.394a.215.215,0,0,1,.011-.305.217.217,0,0,1,.279-.019l.026.026,10.381,11.108Z" transform="translate(-2797.111 -1342.53)" fill="#ccd7ee"/>
    <path id="Tracé_14857" data-name="Tracé 14857" d="M2849.453,1407.688a3.241,3.241,0,1,1-4.563-1.364A3.376,3.376,0,0,1,2849.453,1407.688Z" transform="translate(-2810.134 -1360.885)" fill="#ccd7ee" fill-rule="evenodd"/>
    <path id="Tracé_14858" data-name="Tracé 14858" d="M2850.4,1407.664a3.239,3.239,0,1,1-4.563-1.364A3.371,3.371,0,0,1,2850.4,1407.664Z" transform="translate(-2810.722 -1360.869)" fill="#e4ebf7" fill-rule="evenodd"/>
    <path id="Tracé_14859" data-name="Tracé 14859" d="M2850.977,1409.1a2.514,2.514,0,1,1-3.542-1.059A2.616,2.616,0,0,1,2850.977,1409.1Z" transform="translate(-2811.933 -1362.01)" fill="#faad14" fill-rule="evenodd"/>
    <path id="Tracé_14860" data-name="Tracé 14860" d="M2840.384,1351.07a.226.226,0,0,1,.313-.09,8.294,8.294,0,0,0,3.885,1.048.237.237,0,0,1,.23.237.234.234,0,0,1-.234.226,8.78,8.78,0,0,1-4.1-1.108A.232.232,0,0,1,2840.384,1351.07Z" transform="translate(-2808.255 -1326.638)" fill="#dd936f"/>
    <path id="Tracé_14861" data-name="Tracé 14861" d="M2822.868,1433.154s-5.569-4.665-8.994-4.42c-3.255.234-5.207,2.883-4.65,4.371,0,0-.746,1.3.463,1.722-.162.953,1.209.886,1.209.886s-.234.6.746.742,2.053-1.861,4.589-1.451Z" transform="translate(-2788.711 -1375.108)" fill="#ffc999" fill-rule="evenodd"/>
    <path id="Tracé_14862" data-name="Tracé 14862" d="M2812.814,1427.793a6.712,6.712,0,0,0-4.337,2.649,4.576,4.576,0,0,0-.931,1.647l-.011.06c-.06.369.064.633.336.716l.015.008-.019.049a1.184,1.184,0,0,0-.094.565l.008.064a.954.954,0,0,0,.55.682l.072.034v.019a.912.912,0,0,0,.78.87l.1.026a2.77,2.77,0,0,0,.294.041l.026,0v.019a.61.61,0,0,0,.091.256,1.118,1.118,0,0,0,.874.471,1.253,1.253,0,0,0,.78-.177l.087-.045c.181-.1.866-.554.874-.558a3.766,3.766,0,0,1,2.845-.671.2.2,0,0,0,.094,0l6.891-1.779a.232.232,0,0,0,.087-.4l-.249-.2-.252-.2c-.132-.1-.275-.207-.426-.32-.72-.531-1.5-1.059-2.295-1.556a22.931,22.931,0,0,0-2.672-1.439,8.023,8.023,0,0,0-3.391-.844Zm3.331,1.258a22.375,22.375,0,0,1,2.615,1.409c.787.49,1.552,1.014,2.264,1.537l.332.249.215.162-6.394,1.65.049.007a4.156,4.156,0,0,0-3.044.659l-.121.075c-.019.011-.689.456-.852.546a.938.938,0,0,1-.576.17c-.313-.045-.479-.136-.539-.245a.24.24,0,0,1-.03-.143l.008-.045a.232.232,0,0,0-.2-.313h-.042a1.9,1.9,0,0,1-.527-.06c-.335-.094-.482-.252-.433-.554a.228.228,0,0,0-.151-.256c-.331-.117-.471-.271-.49-.463a.822.822,0,0,1,.117-.46,1.374,1.374,0,0,1,.125-.2.233.233,0,0,0-.238-.369l-.083.019c-.185.034-.2-.019-.154-.245a4.16,4.16,0,0,1,.836-1.454,6.293,6.293,0,0,1,4.013-2.476A7.288,7.288,0,0,1,2816.145,1429.052Z" transform="translate(-2787.79 -1374.521)" fill="#dd936f"/>
    <path id="Tracé_14863" data-name="Tracé 14863" d="M2813.854,1432.087a.232.232,0,0,1,.056.46,5.867,5.867,0,0,0-2.788,1.379,13.082,13.082,0,0,0-1.078.98l-.162.17-.192.215c-.023.026-.042.045-.053.06a.227.227,0,0,1-.324.026.231.231,0,0,1-.03-.324l.117-.132c.09-.1.2-.215.313-.336a12.744,12.744,0,0,1,1.12-1.017A6.27,6.27,0,0,1,2813.854,1432.087Z" transform="translate(-2788.857 -1377.202)" fill="#dd936f"/>
    <path id="Tracé_14864" data-name="Tracé 14864" d="M2815.823,1435.4a.234.234,0,0,1,.241.222.237.237,0,0,1-.226.241c-.075,0-.155.008-.233.015a7.349,7.349,0,0,0-3.47,1.53,14.08,14.08,0,0,0-1.308,1.078c-.105.094-.2.185-.286.271l-.2.2c0,.008-.011.011-.015.019a.232.232,0,0,1-.339-.317l.139-.143.181-.173c.06-.064.128-.128.2-.192a15.052,15.052,0,0,1,1.353-1.111,7.79,7.79,0,0,1,3.7-1.62C2815.65,1435.407,2815.736,1435.4,2815.823,1435.4Z" transform="translate(-2789.292 -1379.268)" fill="#dd936f"/>
    <path id="Tracé_14865" data-name="Tracé 14865" d="M2817.84,1439.3a.229.229,0,0,1,.245.215.226.226,0,0,1-.215.245,3.875,3.875,0,0,0-1.443.49,10.8,10.8,0,0,0-1.248.772c-.4.283-.787.584-1.149.889l-.18.151-.283.249a.232.232,0,0,1-.327-.015.227.227,0,0,1,.015-.324l.128-.117.166-.143c.057-.049.121-.1.184-.158.373-.309.773-.618,1.184-.908a11.387,11.387,0,0,1,1.3-.807A4.278,4.278,0,0,1,2817.84,1439.3Z" transform="translate(-2791.317 -1381.698)" fill="#dd936f"/>
    <path id="Tracé_14866" data-name="Tracé 14866" d="M2799.859,1407.382a.181.181,0,0,1,.222.083l.015.03,2.057,5.777a.188.188,0,0,1-.17.249l-.105,0c-.091.008-.192.019-.309.03-.335.03-.709.079-1.112.147a15.866,15.866,0,0,0-3.372.938,7.735,7.735,0,0,0-4.216,3.523.186.186,0,0,1-.249.083.192.192,0,0,1-.083-.252,8.1,8.1,0,0,1,4.405-3.7,16.266,16.266,0,0,1,3.451-.957c.343-.057.667-.1.965-.136l.26-.026.1-.008-1.975-5.546a.185.185,0,0,1,.083-.222Z" transform="translate(-2778.442 -1361.8)" fill="#4e5c93"/>
    <path id="Tracé_14867" data-name="Tracé 14867" d="M2891.286,1417.342a7.3,7.3,0,0,1,4.457-.546.19.19,0,0,1,.144.222.186.186,0,0,1-.222.143,6.93,6.93,0,0,0-4.231.52c-.275.121-.531.249-.761.377l-.136.075c-.155.09-.264.162-.32.2a.185.185,0,1,1-.215-.3l.094-.064c.072-.045.159-.1.256-.154A8.02,8.02,0,0,1,2891.286,1417.342Z" transform="translate(-2839.145 -1367.585)" fill="#4e5c93"/>
    <path id="Tracé_14868" data-name="Tracé 14868" d="M2862.04,1434.674a.231.231,0,0,1,.305-.124,7.058,7.058,0,0,1,2.261,1.632,10.55,10.55,0,0,1,1.108,1.375q.125.187.226.35l.113.192a.644.644,0,0,1,.049.09.227.227,0,0,1-.124.324l-.034.011-4.212.81-13.9,6.974a.228.228,0,0,1-.29-.072l-.022-.03a.233.233,0,0,1,.072-.29l.034-.019,13.926-6.993.061-.019,3.922-.754-.057-.09c-.022-.038-.049-.075-.071-.113l-.079-.113a9.95,9.95,0,0,0-1.056-1.315,6.56,6.56,0,0,0-2.114-1.526A.23.23,0,0,1,2862.04,1434.674Z" transform="translate(-2812.705 -1378.727)" fill="#dd936f"/>
    <path id="Tracé_14869" data-name="Tracé 14869" d="M2821.282,1480.671a.217.217,0,0,1,.275-.139l.233.075.207.06.475.135c.746.2,1.6.411,2.547.6a38.711,38.711,0,0,0,18.437-.456.218.218,0,1,1,.12.418,39.143,39.143,0,0,1-18.644.464c-.957-.192-1.82-.4-2.573-.607l-.253-.072c-.125-.034-.237-.064-.343-.1l-.29-.091-.053-.015A.218.218,0,0,1,2821.282,1480.671Z" transform="translate(-2796.36 -1407.387)" fill="#253368"/>
    <path id="Tracé_14870" data-name="Tracé 14870" d="M2841.52,1320.01a.278.278,0,0,1,.279.279,1.819,1.819,0,1,1-3.629,0,.279.279,0,1,1,.558,0,1.263,1.263,0,1,0,2.513,0A.278.278,0,0,1,2841.52,1320.01Z" transform="translate(-2806.892 -1307.356)" fill="#253368"/>
    <path id="Tracé_14871" data-name="Tracé 14871" d="M2860.715,1320.52a.265.265,0,0,1,.268.264,1.668,1.668,0,1,1-3.293,0,.264.264,0,0,1,.527,0,1.147,1.147,0,1,0,2.234,0A.264.264,0,0,1,2860.715,1320.52Z" transform="translate(-2819.056 -1307.674)" fill="#253368"/>
    <path id="Tracé_14872" data-name="Tracé 14872" d="M2837.538,1311.5a4.615,4.615,0,0,1,3.256-.06,4.668,4.668,0,0,1,.667.264.281.281,0,0,1,.116.377.277.277,0,0,1-.377.117l-.072-.034a.412.412,0,0,1-.075-.034c-.128-.053-.271-.109-.43-.158a4.093,4.093,0,0,0-2.871.041,3.749,3.749,0,0,0-.49.256.275.275,0,0,1-.384-.087.279.279,0,0,1,.086-.384A3.941,3.941,0,0,1,2837.538,1311.5Z" transform="translate(-2806.061 -1301.849)" fill="#253368"/>
    <path id="Tracé_14873" data-name="Tracé 14873" d="M2801.664,1480.332c4.895.328,16.862,31.1,21.376,42.1-.558,2.234-4.081,6.2-4.081,6.2s.4,1.767.652,2.83c-4.133,3.482-12.185,5.441-12.185,5.441v1.522c-12.837,6.093-30.185.6-30.185.6s-.324-.324-.109-1.522c-5.859,0-18.49-7.287-18.49-7.287l1.737-3.7-5.219-5.222S2771.114,1494,2773.834,1488c3.026-6.681,6.372-7.924,6.372-7.924S2792.979,1479.756,2801.664,1480.332Z" transform="translate(-2755.16 -1407.056)" fill="#4e5c93" fill-rule="evenodd"/>
    <path id="Tracé_14874" data-name="Tracé 14874" d="M2779.865,1526.213a.219.219,0,0,1,.29-.106.224.224,0,0,1,.113.26l-.011.03-15.37,32.258.192.139.162.113c.415.286.9.607,1.462.953a47.834,47.834,0,0,0,5.5,2.894,49.073,49.073,0,0,0,10.618,3.372.215.215,0,0,1,.169.253.217.217,0,0,1-.252.173,49.467,49.467,0,0,1-10.713-3.4,47.857,47.857,0,0,1-5.554-2.92c-.5-.313-.946-.6-1.334-.867l-.143-.1c-.091-.06-.17-.121-.245-.173l-.207-.147-.064-.049a.212.212,0,0,1-.076-.23l.012-.038Z" transform="translate(-2760.915 -1435.785)" fill="#253368"/>
    <path id="Tracé_14875" data-name="Tracé 14875" d="M2888.1,1518.886a.215.215,0,0,1,.264.091l.019.034,14.409,36.824a.22.22,0,0,1-.08.26l-.1.064c-.083.053-.181.117-.29.185l-.282.177c-.25.151-.521.313-.818.482a42.285,42.285,0,0,1-3.953,1.99,36.546,36.546,0,0,1-6.978,2.3.225.225,0,0,1-.261-.169.221.221,0,0,1,.17-.256,35.815,35.815,0,0,0,6.892-2.276,41.973,41.973,0,0,0,3.915-1.967c.411-.237.772-.456,1.085-.648l.233-.151-14.348-36.659a.225.225,0,0,1,.09-.268Z" transform="translate(-2837.923 -1431.287)" fill="#253368"/>
    <path id="Tracé_14876" data-name="Tracé 14876" d="M2833.017,1496.353a.221.221,0,0,1,.256.169l.783,3.776c.279,1.349.577,2.792.889,4.318l.282,1.4c1.357,6.639,2.713,13.418,3.991,19.989l.316,1.639c.233,1.213.467,2.411.689,3.591l.49,2.562c1.051,5.562,1.971,10.6,2.728,15.008a.215.215,0,0,1-.143.241c-.727.256-1.462.493-2.211.708a52.254,52.254,0,0,1-23.923.7c-1.2-.222-2.28-.464-3.225-.7l-.321-.083c-.1-.026-.2-.052-.29-.079l-.377-.105-.188-.057a.211.211,0,0,1-.155-.215l0-.034,7.51-37.2a.217.217,0,0,1,.43.053l0,.034-7.468,37.006.366.1q.271.074.6.158c.938.238,2.009.479,3.2.7a51.9,51.9,0,0,0,23.723-.693c.592-.17,1.18-.354,1.756-.55l.26-.09-.279-1.613c-.719-4.111-1.567-8.727-2.521-13.761l-.215-1.127q-.419-2.193-.859-4.469c-1.16-5.991-2.388-12.174-3.628-18.3l-1.24-6.074-1.394-6.741A.224.224,0,0,1,2833.017,1496.353Z" transform="translate(-2790.962 -1417.251)" fill="#253368"/>
    <path id="Tracé_14877" data-name="Tracé 14877" d="M2846.789,1498.229a.221.221,0,0,1,.2.192v.037l-1.9,35.841a.217.217,0,0,1-.433.015v-.038l1.9-35.841A.219.219,0,0,1,2846.789,1498.229Z" transform="translate(-2810.937 -1418.423)" fill="#253368"/>
    <path id="Tracé_14878" data-name="Tracé 14878" d="M2821.536,1483.511a.215.215,0,0,1,.418.1l-.008.038-7.178,21.866a.218.218,0,0,1-.422-.1l.007-.034Z" transform="translate(-2792.043 -1409.157)" fill="#253368"/>
    <path id="Tracé_14879" data-name="Tracé 14879" d="M2792.656,1818.85c-.068.309-1.111-10.641-1.058-13.87a40.332,40.332,0,0,0,8.319.166s-.569,12.483-.407,13.7C2796.409,1820.726,2792.656,1818.85,2792.656,1818.85Z" transform="translate(-2777.867 -1609.591)" fill="#597ef7" fill-rule="evenodd"/>
    <path id="Tracé_14880" data-name="Tracé 14880" d="M2794.3,1853.545c.535,4.326,2.864,6.617,5.268,6.869,2.972.313,6.213-.524,6.733-3.192.6-3.041-.969-4.6-2.717-8.949a63.221,63.221,0,0,1-3.237-11.176s-2.231-1.3-1.632,2.449c.482,3.037,1.658,11.587,3.723,12.182-2.012-.162-6.146,1.417-6.146,1.417s1.47-2.287,1.36-3.048-1.322-8.561-1.386-10.878c-.06-2.287-2.046-2.012-3-1.745a.622.622,0,0,0-.452.678C2792.9,1838.917,2794.044,1851.5,2794.3,1853.545Z" transform="translate(-2778.621 -1629.47)" fill="#4e5c93" fill-rule="evenodd"/>
    <path id="Tracé_14881" data-name="Tracé 14881" d="M2797.785,1840.666s-2.483-5.192,0-5.708c1.959-.411,3.836-.494,4.077,0,.094.181.083,1.873.735,5.381a35.756,35.756,0,0,0,3.429,9.876c1.142,1.549-.083,1.632-2.856,2.366s-3.753.731-4.488-.735S2797.947,1843.85,2797.785,1840.666Z" transform="translate(-2781.036 -1628.061)" fill="#4e5c93" fill-rule="evenodd"/>
    <path id="Tracé_14882" data-name="Tracé 14882" d="M2804.548,1854.038a.289.289,0,1,1,.211.539,9.075,9.075,0,0,0-1.119.542c-.388.223-.8.479-1.225.765-.407.279-.807.569-1.195.866l-.214.166.011,0a8.914,8.914,0,0,1,1.041.105l.185.034a15.529,15.529,0,0,1,2.242.6c.475.158.923.332,1.338.5l.208.087.324.147a.29.29,0,0,1-.087.55,7.321,7.321,0,0,0-3.444,1.613,14.722,14.722,0,0,0-1.315,1.146c-.087.083-.162.162-.233.233l-.136.143c-.064.068-.105.117-.128.139a.29.29,0,0,1-.437-.381l.1-.113.038-.041c.113-.121.241-.253.388-.392a14.8,14.8,0,0,1,1.372-1.194,9.278,9.278,0,0,1,2.694-1.5l.109-.034-.177-.068c-.169-.068-.347-.132-.527-.2l-.275-.094a15.514,15.514,0,0,0-2.159-.576,6.379,6.379,0,0,0-1.959-.1.288.288,0,0,1-.226-.5l.169-.143.26-.211c.064-.049.128-.1.2-.154.482-.377,1-.757,1.515-1.112.437-.294.859-.562,1.262-.791A10.3,10.3,0,0,1,2804.548,1854.038Z" transform="translate(-2783.009 -1640.152)" fill="#ccd7ee"/>
    <path id="Tracé_14883" data-name="Tracé 14883" d="M2800.077,1855.89a5.972,5.972,0,0,1,2.012-.038,14.014,14.014,0,0,1,1.948.388c.3.075.581.158.848.245l.275.09.332.113a.289.289,0,0,1,0,.543,10.322,10.322,0,0,0-2.8,1.624,14.7,14.7,0,0,0-1.375,1.24l-.218.234-.113.121.369.008.316.011.166.008a23.443,23.443,0,0,1,2.427.219,8.093,8.093,0,0,1,3.214,1,.289.289,0,0,1-.32.482,7.671,7.671,0,0,0-2.976-.912c-.75-.109-1.556-.177-2.37-.215-.381-.015-.727-.022-1.025-.022h-.426a.289.289,0,0,1-.234-.468l.121-.147.038-.045c.124-.147.271-.313.437-.49a15,15,0,0,1,1.613-1.481,11.682,11.682,0,0,1,2.141-1.364l.09-.042-.056-.019c-.132-.042-.267-.079-.411-.117l-.21-.061a13.652,13.652,0,0,0-1.869-.369,5.507,5.507,0,0,0-1.816.026.29.29,0,0,1-.128-.565Z" transform="translate(-2783.012 -1641.254)" fill="#ccd7ee"/>
    <path id="Tracé_14884" data-name="Tracé 14884" d="M2797.424,1879.034s5.874-4.895,11.259-1.307c1.349,3,.569,4.785-.079,5.712a3.211,3.211,0,0,1-1.217,1.077c-1.311.471-4.751,1.424-7.186-.181A6,6,0,0,1,2797.424,1879.034Z" transform="translate(-2781.492 -1654.108)" fill="#ccd7ee" fill-rule="evenodd"/>
    <path id="Tracé_14885" data-name="Tracé 14885" d="M2809.34,1879.8a.16.16,0,0,1,.211.064,3.3,3.3,0,0,1-1.142,4.009c-.784.52-3.549.995-5.746.893a3.366,3.366,0,0,1-2.656-1.809,7.24,7.24,0,0,1-.61-1.225c-.045-.109-.083-.211-.117-.309l-.053-.173c-.011-.034-.019-.06-.026-.075a.157.157,0,0,1,.109-.192.153.153,0,0,1,.188.109l.045.143.064.185c.023.064.046.132.076.2a6.768,6.768,0,0,0,.584,1.172,3.08,3.08,0,0,0,2.408,1.669,13.23,13.23,0,0,0,5.565-.844,3,3,0,0,0,1.037-3.61A.156.156,0,0,1,2809.34,1879.8Z" transform="translate(-2782.603 -1656.209)" fill="#a3b5d6"/>
    <path id="Tracé_14886" data-name="Tracé 14886" d="M2791.481,1809.641a.29.29,0,0,1,.346-.222l.242.045.124.022c.3.053.637.109,1.01.158a22.518,22.518,0,0,0,5.648.09c.181-.023.362-.045.539-.075a.29.29,0,1,1,.091.573c-.185.03-.37.057-.558.079a23.17,23.17,0,0,1-5.8-.094c-.317-.042-.614-.087-.878-.132l-.309-.057-.233-.045A.294.294,0,0,1,2791.481,1809.641Z" transform="translate(-2777.792 -1612.353)" fill="#ccd7ee"/>
    <path id="Tracé_14887" data-name="Tracé 14887" d="M2796.917,1847.38h.042l.23.011c.185.011.388.027.606.045a17.635,17.635,0,0,1,1.843.256c2.039.4,3.191,1.089,2.8,2.242-.354,1.07-1.447.919-2.939.034-.316-.188-.648-.407-.991-.656-.4-.287-.795-.6-1.168-.9l-.094-.083-.14-.117-.184.264-.091.128c-.358.494-.738.987-1.134,1.451a12.5,12.5,0,0,1-1.149,1.213c-.994.9-1.831,1.251-2.46.769a.829.829,0,0,1-.181-1.153,3.89,3.89,0,0,1,1.01-1.055,13.025,13.025,0,0,1,1.319-.9c.516-.32,1.07-.633,1.624-.923l.279-.147.464-.23a.127.127,0,0,1,.034-.015l.026-.008,0-.023A.292.292,0,0,1,2796.917,1847.38Zm-.708,1.093-.076.041c-.542.287-1.089.592-1.594.9a13.607,13.607,0,0,0-1.262.866,3.511,3.511,0,0,0-.863.882c-.113.2-.1.309.03.41.316.241.916-.007,1.715-.734a11.971,11.971,0,0,0,1.1-1.161c.3-.362.607-.742.893-1.127Zm1.571-.456.155.125c.294.241.6.479.916.7s.648.445.949.625c1.2.712,1.918.81,2.1.282.211-.637-.664-1.157-2.37-1.492-.471-.094-.972-.166-1.477-.219Z" transform="translate(-2777.967 -1636.014)" fill="#ccd7ee"/>
    <path id="Tracé_14888" data-name="Tracé 14888" d="M2798.672,1840.448a.294.294,0,0,1,.309.222l0,.042.218,2.393a.291.291,0,0,1-.572.09l0-.038-.219-2.393A.289.289,0,0,1,2798.672,1840.448Z" transform="translate(-2782.111 -1631.694)" fill="#ccd7ee"/>
    <path id="Tracé_14889" data-name="Tracé 14889" d="M2808.773,1838.427a.285.285,0,0,1,.309.222l.008.042.215,2.393a.289.289,0,0,1-.569.09l-.008-.037-.219-2.4A.293.293,0,0,1,2808.773,1838.427Z" transform="translate(-2788.407 -1630.434)" fill="#ccd7ee"/>
  </g>
</svg>
