<svg xmlns="http://www.w3.org/2000/svg" width="126.78" height="216.252" viewBox="0 0 126.78 216.252">
  <g id="Groupe_2851" data-name="Groupe 2851" transform="translate(0)">
    <path id="Tracé_18541" data-name="Tracé 18541" d="M6469.205,4606.58s2.572-20.6-25.224-29.863-33.983-4.381-33.983-4.381l2.573,8.24s4.38,20.594,24.457,23.429S6464.83,4602.718,6469.205,4606.58Z" transform="translate(-6342.487 -4472.441)" fill="#7cb305" fill-rule="evenodd"/>
    <path id="Tracé_18542" data-name="Tracé 18542" d="M6415.256,4579.831l-.814.631.066.084.107.131.126.156c.1.105.19.215.3.341l.09.094c.563.625,1.244,1.322,2.04,2.07a50.722,50.722,0,0,0,8.347,6.263,62.749,62.749,0,0,0,23.417,8.252l.335.051a31.631,31.631,0,0,1,14.668,5.708,22.058,22.058,0,0,1,4.32,4.225c.376.5.688.964.939,1.379l.078.138c.035.063.071.129.1.183l.091.167,0,.012.928-.443-.03-.058c-.06-.116-.148-.295-.286-.526a17.271,17.271,0,0,0-1.006-1.475,22.822,22.822,0,0,0-4.524-4.425,32.488,32.488,0,0,0-14.871-5.865l-.269-.038a61.861,61.861,0,0,1-23.362-8.168,49.58,49.58,0,0,1-8.173-6.128c-.725-.688-1.354-1.319-1.874-1.894l-.107-.12c-.168-.179-.312-.344-.432-.484l-.136-.167Z" transform="translate(-6344.762 -4478.964)" fill="#7cb305"/>
    <path id="Tracé_18543" data-name="Tracé 18543" d="M6630.588,4624.2h-3.346v-48.14h3.346l-.9,14.793a118.852,118.852,0,0,0-.084,12.638Z" transform="translate(-6559.734 -4476.163)" fill="#7cb305" fill-rule="evenodd"/>
    <path id="Tracé_18544" data-name="Tracé 18544" d="M6487.313,4409.334s-10.245-15.58-34.659-5.706-25.632,17.758-25.632,17.758l6.409,3.192s15,11.526,30.382,1.76S6482.07,4409.245,6487.313,4409.334Z" transform="translate(-6364.914 -4345.687)" fill="#7cb305" fill-rule="evenodd"/>
    <path id="Tracé_18545" data-name="Tracé 18545" d="M6649.825,4561.844h-2.579l-1-84.98a2.312,2.312,0,0,1,1.688-2.262l1.9-.541s-.651,7.892-.52,17.76c.125,9.437,1.035,20.669,1.035,28.988C6650.34,4544.338,6649.825,4561.844,6649.825,4561.844Z" transform="translate(-6584.375 -4400.42)" fill="#7cb305" fill-rule="evenodd"/>
    <path id="Tracé_18546" data-name="Tracé 18546" d="M6449.414,4416.311a146.531,146.531,0,0,1-22.393,14.162l3.321,1.648s15,11.526,30.382,1.757,18.257-17.088,23.5-17C6484.224,4416.878,6466.666,4402.927,6449.414,4416.311Z" transform="translate(-6361.826 -4353.225)" fill="#5b8c00" fill-rule="evenodd"/>
    <path id="Tracé_18547" data-name="Tracé 18547" d="M6737,4561.032s6.917-10.46,23.38-3.833,17.294,11.92,17.294,11.92l-4.326,2.143s-10.114,7.738-20.49,1.183S6740.536,4560.973,6737,4561.032Z" transform="translate(-6735.073 -4460.524)" fill="#7cb305" fill-rule="evenodd"/>
    <path id="Tracé_18548" data-name="Tracé 18548" d="M6736.352,4664.207h1.782l.694-57.312a1.568,1.568,0,0,0-1.166-1.526l-1.311-.369s.447,5.329.357,11.984c-.089,6.363-.711,13.942-.711,19.546C6736,4652.4,6736.352,4664.207,6736.352,4664.207Z" transform="translate(-6695.972 -4497.655)" fill="#7cb305" fill-rule="evenodd"/>
    <path id="Tracé_18549" data-name="Tracé 18549" d="M6668.237,4332.336s10.244-15.58,34.662-5.706,25.636,17.758,25.636,17.758l-6.416,3.192s-15,11.529-30.383,1.759S6673.48,4332.247,6668.237,4332.336Z" transform="translate(-6668.234 -4288.509)" fill="#7cb305" fill-rule="evenodd"/>
    <path id="Tracé_18550" data-name="Tracé 18550" d="M6667.841,4488.189h2.573l1-88.326a2.309,2.309,0,0,0-1.676-2.261l-1.9-.542s.646,7.893.515,17.762c-.12,9.437-1.023,20.668-1.023,28.987C6667.332,4467.339,6667.841,4488.189,6667.841,4488.189Z" transform="translate(-6610.884 -4343.241)" fill="#7cb305" fill-rule="evenodd"/>
    <path id="Tracé_18551" data-name="Tracé 18551" d="M6680.24,4339.878s17.563-13.948,34.81-.565a146.171,146.171,0,0,0,22.4,14.16l-3.327,1.649s-15,11.526-30.381,1.757S6685.488,4339.788,6680.24,4339.878Z" transform="translate(-6680.24 -4296.052)" fill="#5b8c00" fill-rule="evenodd"/>
    <path id="Tracé_18552" data-name="Tracé 18552" d="M6702.352,4433.214h-4.375l-1.735-54.712,3.3-51.631a2.33,2.33,0,0,1,1.687-2.268l1.9-.542s-4.116,41.006-4.116,49.321C6699.007,4396.912,6702.352,4433.214,6702.352,4433.214Z" transform="translate(-6650.032 -4289.035)" fill="#7cb305" fill-rule="evenodd"/>
    <path id="Tracé_18553" data-name="Tracé 18553" d="M6560.2,4194.133s-9.347-13.838-31.489.06c-22.3,14.009-20.753,32.372-20.753,32.372l7.127.745s18.09,5.535,29.065-9.009S6555.259,4195.89,6560.2,4194.133Z" transform="translate(-6458.636 -4188)" fill="#7cb305" fill-rule="evenodd"/>
    <path id="Tracé_18554" data-name="Tracé 18554" d="M6556.744,4204.533s-10.06-7.418-18.611,3.15c-4.38,5.4-12.124,9.479-15.451,12.611a118.835,118.835,0,0,0-14.744,17.034l3.692.38s18.089,5.535,29.064-9.012S6551.8,4206.29,6556.744,4204.533Z" transform="translate(-6455.179 -4198.397)" fill="#5b8c00" fill-rule="evenodd"/>
    <path id="Tracé_18555" data-name="Tracé 18555" d="M6544.179,4820.139h59.728a6.175,6.175,0,0,0,6.176-6.175v-59.725a6.176,6.176,0,0,0-6.176-6.178h-59.728a6.176,6.176,0,0,0-6.176,6.178v59.725A6.176,6.176,0,0,0,6544.179,4820.139Z" transform="translate(-6516.252 -4603.887)" fill="#253368" fill-rule="evenodd"/>
  </g>
</svg>
