<svg id="Groupe_82" data-name="Groupe 82" xmlns="http://www.w3.org/2000/svg" width="100.632" height="163.711" viewBox="0 0 100.632 163.711">
  <path id="Tracé_18556" data-name="Tracé 18556" d="M7670.962,4161.36c-21.872-10.345-34.908,16.789-23.906,31.9,13.424,18.437,20.3,39.651,24.127,46.041,3.233,5.391,12.085,18.536,22.738,12.479,9.8-5.578,4.461-27.46,4.461-27.46S7697.954,4174.124,7670.962,4161.36Z" transform="translate(-7643.074 -4159.067)" fill="#5b8c00" fill-rule="evenodd"/>
  <path id="Tracé_18557" data-name="Tracé 18557" d="M7435.129,4514.1c7.438-10.031,10.157-24.434,1.853-28.123-7.956-3.54-21.137,5.174-27.242,21.952s-9.629,28.831-3.656,30.928C7415.883,4542.292,7425.31,4527.345,7435.129,4514.1Z" transform="translate(-7341.449 -4425.6)" fill="#5b8c00" fill-rule="evenodd"/>
  <path id="Tracé_18558" data-name="Tracé 18558" d="M7711.12,4577.714c8.411,9.859,20.552,29.684,28.154,22.739,4.6-4.206-1.551-24.136-18.419-34.981C7706.512,4556.247,7702.709,4567.859,7711.12,4577.714Z" transform="translate(-7695.616 -4488.457)" fill="#7cb305" fill-rule="evenodd"/>
  <path id="Tracé_18559" data-name="Tracé 18559" d="M7448.866,4263.867a12.62,12.62,0,0,0-10.895-1.465c-5.123,1.64-12.9,6.527-20.6,20.551-10.045,18.313-15.274,38.387-14.242,51.1a9.668,9.668,0,0,0,16.652,5.837c2.633-2.787,5.419-7.077,8.142-13.59,10.968-26.2,21.218-42.626,22.445-44.274C7453.628,4277.63,7455.964,4268.643,7448.866,4263.867Z" transform="translate(-7352.875 -4243.01)" fill="#7cb305" fill-rule="evenodd"/>
  <path id="Tracé_18560" data-name="Tracé 18560" d="M7442.981,4320.781a2.351,2.351,0,1,0,2.54-2.146A2.351,2.351,0,0,0,7442.981,4320.781Z" transform="translate(-7354.347 -4289.47)" fill="#fff" fill-rule="evenodd"/>
  <path id="Tracé_18561" data-name="Tracé 18561" d="M7552.262,4375.709a2.353,2.353,0,1,0,2.545-2.146A2.353,2.353,0,0,0,7552.262,4375.709Z" transform="translate(-7483.603 -4334.363)" fill="#fff" fill-rule="evenodd"/>
  <path id="Tracé_18562" data-name="Tracé 18562" d="M7530.219,4520.564a2.693,2.693,0,1,0,2.907-2.458A2.689,2.689,0,0,0,7530.219,4520.564Z" transform="translate(-7458.207 -4452.488)" fill="#fff" fill-rule="evenodd"/>
  <path id="Tracé_18563" data-name="Tracé 18563" d="M7853.6,4296a3.806,3.806,0,1,0,3.807-3.806A3.808,3.808,0,0,0,7853.6,4296Z" transform="translate(-7842.922 -4267.862)" fill="#fff" fill-rule="evenodd"/>
  <path id="Tracé_18564" data-name="Tracé 18564" d="M7685.858,4359.631a3.809,3.809,0,1,0,3.811-3.811A3.809,3.809,0,0,0,7685.858,4359.631Z" transform="translate(-7644.532 -4319.869)" fill="#fff" fill-rule="evenodd"/>
  <path id="Tracé_18565" data-name="Tracé 18565" d="M7764.441,4510.981a1.593,1.593,0,1,0,1.594-1.591A1.593,1.593,0,0,0,7764.441,4510.981Z" transform="translate(-7733.042 -4445.374)" fill="#fff" fill-rule="evenodd"/>
  <path id="Tracé_18566" data-name="Tracé 18566" d="M7818.867,4618.963a2.354,2.354,0,1,0,2.35-2.352A2.353,2.353,0,0,0,7818.867,4618.963Z" transform="translate(-7798.934 -4533.003)" fill="#fff" fill-rule="evenodd"/>
  <path id="Tracé_18567" data-name="Tracé 18567" d="M7558.764,4657.333a.552.552,0,0,0-.778.019l-.1.108-.077.084c-.136.156-.3.338-.476.55-.51.609-1.074,1.334-1.682,2.179a57.979,57.979,0,0,0-5.094,8.6,76.605,76.605,0,0,0-7.382,33.8.548.548,0,0,0,1.1,0,75.463,75.463,0,0,1,7.277-33.326,56.884,56.884,0,0,1,4.986-8.436c.562-.775,1.083-1.444,1.552-2.01l.088-.106c.136-.159.254-.3.365-.423l.136-.155c.052-.057.09-.093.105-.115A.549.549,0,0,0,7558.764,4657.333Z" transform="translate(-7483.913 -4566.16)" fill="#253368"/>
  <path id="Tracé_18568" data-name="Tracé 18568" d="M7681.914,4678.023a.549.549,0,0,0-.769-.11.556.556,0,0,0-.111.769,75.512,75.512,0,0,1,5.54,8.6,101.331,101.331,0,0,1,8.4,20.257c.723,2.422,1.3,4.663,1.752,6.678l.095.412q.158.738.274,1.343l.05.263.095.5a.549.549,0,0,0,1.084-.181l-.034-.178c-.026-.143-.056-.312-.094-.5l-.094-.457c-.084-.437-.189-.913-.307-1.438l-.1-.441c-.437-1.92-.988-4.038-1.664-6.309a102.493,102.493,0,0,0-8.5-20.479A77.8,77.8,0,0,0,7681.914,4678.023Z" transform="translate(-7648.485 -4583.012)" fill="#253368"/>
  <path id="Tracé_18569" data-name="Tracé 18569" d="M7674.729,4304.044a.543.543,0,0,0-.043.749l.025.025c.009.011.034.036.067.074l.137.149.076.084c.237.265.515.58.82.95.889,1.062,1.877,2.343,2.947,3.838a100.9,100.9,0,0,1,8.963,15.457,133.7,133.7,0,0,1,10.7,34.367,175.647,175.647,0,0,1,.948,51.252.545.545,0,1,0,1.083.13,176.72,176.72,0,0,0-.953-51.567,134.74,134.74,0,0,0-10.788-34.65,101.354,101.354,0,0,0-9.065-15.628l-.237-.333c-.952-1.322-1.843-2.468-2.655-3.445l-.1-.122c-.289-.347-.553-.652-.781-.91l-.063-.07c-.072-.079-.136-.148-.191-.212l-.11-.121A.556.556,0,0,0,7674.729,4304.044Z" transform="translate(-7650.873 -4277.43)" fill="#253368"/>
  <path id="Tracé_18570" data-name="Tracé 18570" d="M7580.955,4482.272a.54.54,0,0,0-.748.185l-.06.094c-.043.073-.093.16-.152.266l-.085.149c-.148.257-.31.557-.5.89l-.148.281q-.842,1.558-1.821,3.6l-.09.187a139.644,139.644,0,0,0-6.241,15.6,179.8,179.8,0,0,0-9.06,56.141.549.549,0,0,0,.539.555.555.555,0,0,0,.558-.546,178.793,178.793,0,0,1,9-55.8,138.334,138.334,0,0,1,6.074-15.23l.114-.242c.71-1.482,1.368-2.776,1.963-3.879l.178-.327c.175-.314.327-.59.465-.825l.063-.111.131-.225A.547.547,0,0,0,7580.955,4482.272Z" transform="translate(-7509.654 -4423.147)" fill="#253368"/>
  <path id="Tracé_18571" data-name="Tracé 18571" d="M7514.246,4858.688h47.389a4.671,4.671,0,0,0,4.656-4.66v-34.571a4.668,4.668,0,0,0-4.656-4.655h-47.389a4.667,4.667,0,0,0-4.655,4.655v34.571A4.67,4.67,0,0,0,7514.246,4858.688Z" transform="translate(-7485.134 -4694.977)" fill="#253368" fill-rule="evenodd"/>
</svg>
